<svg width="134" height="37" viewBox="0 0 134 37" fill="none" xmlns="http://www.w3.org/2000/svg">
<g clip-path="url(#clip0_36_16644)">
<path fill-rule="evenodd" clip-rule="evenodd" d="M35.5644 15.8981V25.3633C35.5644 31.4712 30.5593 36.4464 24.4149 36.4464H11.3122C5.12712 36.4464 0.12207 31.4712 0.12207 25.3633V15.8981H7.93484V25.3633C7.93484 28.2352 10.2949 30.5813 13.184 30.5813H22.5024C25.3915 30.5813 27.7516 28.2352 27.7516 25.3633V15.8981H35.5644ZM15.3 12.9453H20.4271C21.241 12.9453 21.9327 13.5925 21.9327 14.4419V23.2195C21.9327 24.0285 21.2816 24.7161 20.4271 24.7161H15.3C14.4862 24.7161 13.7944 24.0689 13.7944 23.2195V14.4419C13.7944 13.633 14.4862 12.9453 15.3 12.9453Z" fill="white" fill-opacity="0.6"/>
<path fill-rule="evenodd" clip-rule="evenodd" d="M27.7923 1.74069C31.5766 2.95417 34.5064 6.10923 35.3609 10.0328H27.7923V1.74069ZM11.3122 1.21484H21.9327V7.08001H13.184C11.1088 7.08001 9.31834 8.2935 8.46382 10.0328H0.366211C1.42419 5.01709 5.94094 1.21484 11.3122 1.21484Z" fill="white" fill-opacity="0.6"/>
<path d="M112.472 18.7696V12.9853H115.93V18.81C115.93 21.5606 116.378 21.8437 118.535 21.8437H120.732V24.6752H118.128C114.303 24.6752 112.472 23.2999 112.472 18.7696ZM104.374 20.0639C104.537 21.6819 105.147 21.8437 106.938 21.8437H110.437V24.6752H106.531C102.746 24.6752 100.875 23.2999 100.875 18.7291C100.875 14.1583 102.706 12.9448 106.531 12.9448H110.437V15.7763H106.938C105.269 15.7763 104.618 15.8977 104.415 17.2729H109.216V20.0235H104.374V20.0639ZM88.0161 12.9853V24.6752H93.3467C97.131 24.6752 99.0028 23.2999 99.0028 18.7291C99.0028 14.1583 97.1717 12.9448 93.3467 12.9448H88.0161V12.9853ZM95.5847 18.81C95.5847 21.5606 95.1371 21.8437 92.9805 21.8437H91.3121V15.8168H92.9805C95.0964 15.8168 95.5847 16.019 95.5847 18.81ZM128.016 12.7021C131.8 12.7021 133.875 13.9561 133.875 18.6887C133.875 23.5021 131.841 24.9179 128.016 24.9179C124.191 24.9179 122.156 23.5021 122.156 18.6887C122.156 13.9561 124.191 12.7021 128.016 12.7021ZM128.016 21.9651C130.172 21.9651 130.417 21.6819 130.417 18.6887C130.417 15.8977 130.172 15.655 128.016 15.655C125.818 15.655 125.615 15.8977 125.615 18.6887C125.574 21.6819 125.818 21.9651 128.016 21.9651Z" fill="white" fill-opacity="0.6"/>
<path d="M67.7514 20.0644C67.9142 21.6824 68.5246 21.8442 70.315 21.8442H73.8145V24.6756H69.9081C66.1238 24.6756 64.252 23.3004 64.252 18.7296C64.252 14.1588 66.0831 12.9453 69.9081 12.9453H73.8145V15.7768H70.315C68.6466 15.7768 67.9956 15.8981 67.7921 17.2734H72.5937V20.024H67.7514V20.0644ZM52.899 24.6756C49.1147 24.6756 47.2429 23.3004 47.2429 18.7296V12.9858H50.7017V18.8105C50.7017 21.5206 51.1493 21.8442 53.2246 21.8442V12.9858H56.4392V21.8442C58.5552 21.8442 59.0028 21.5206 59.0028 18.8105V12.9858H62.4615V18.77C62.4615 23.3408 60.6304 24.7161 56.8054 24.7161C55.544 24.6756 54.2419 24.6756 52.899 24.6756ZM79.0637 15.6959H81.8307C82.1155 15.6959 82.319 15.8577 82.319 16.5453C82.319 17.2734 82.1155 17.3543 81.8307 17.3543H79.0637V15.6959ZM79.0637 21.9251V19.9431H81.8307C82.2376 19.9431 82.5224 20.1453 82.5224 20.9543C82.5224 21.7228 82.2783 21.9251 81.9121 21.9251H79.0637ZM83.2549 18.5678C85.3708 18.406 85.8185 17.4756 85.8185 15.8172C85.8185 13.8352 85.2081 12.9858 82.848 12.9858H75.849V24.6756H82.848C84.7605 24.6756 86.0219 23.9476 86.0219 21.561C85.9812 19.6599 85.4929 18.6891 83.2549 18.5678Z" fill="white" fill-opacity="0.6"/>
<path d="M91.4342 29.044C91.1087 28.9227 90.539 28.8418 89.9693 28.8418C88.5858 28.8418 88.0161 29.2867 88.0161 30.3789C88.0161 31.1879 88.423 31.471 89.3182 31.5924C90.1321 31.6733 90.2135 31.7542 90.2135 31.9564C90.2135 32.1587 90.1321 32.2396 89.5217 32.2396C89.0334 32.2396 88.5858 32.1587 88.3009 32.1182L88.0568 33.1295C88.423 33.2508 88.952 33.3317 89.5217 33.3317C90.9459 33.3317 91.4749 33.0081 91.4749 31.8755C91.4749 31.0665 91.0273 30.662 90.0507 30.5407C89.3182 30.4598 89.2369 30.4193 89.2369 30.1766C89.2369 30.0148 89.3182 29.8935 89.9286 29.8935C90.4576 29.8935 90.8645 29.9744 91.1494 30.0148L91.4342 29.044ZM96.1544 33.2508V29.9744H97.5786V28.9227H93.5502V29.9744H94.9744V33.2508H96.1544ZM102.421 28.9631H103.601V32.1587C103.601 33.089 102.828 33.3722 101.729 33.3722C100.59 33.3722 99.8573 33.1295 99.8573 32.1587V28.9631H101.037V31.8755C101.037 32.1182 101.2 32.2396 101.729 32.2396C102.258 32.2396 102.421 32.1182 102.421 31.8755V28.9631ZM106.124 28.9631V33.2508H108.077C109.461 33.2508 110.152 32.7654 110.152 31.0665C110.152 29.4081 109.461 28.9631 108.077 28.9631H106.124ZM108.891 31.107C108.891 32.1182 108.728 32.2396 107.914 32.2396H107.304V29.9744H107.914C108.728 29.9744 108.891 30.0553 108.891 31.107ZM113.692 28.9631V33.2508H112.512V28.9631H113.692ZM118.575 28.8418C119.959 28.8418 120.732 29.2867 120.732 31.0261C120.732 32.8059 120 33.3317 118.575 33.3317C117.192 33.3317 116.419 32.8059 116.419 31.0261C116.419 29.2867 117.151 28.8418 118.575 28.8418ZM118.575 32.2396C119.389 32.2396 119.471 32.1182 119.471 31.0261C119.471 30.0148 119.389 29.8935 118.575 29.8935C117.762 29.8935 117.68 29.9744 117.68 31.0261C117.68 32.1587 117.762 32.2396 118.575 32.2396Z" fill="white" fill-opacity="0.6"/>
</g>
<defs>
<clipPath id="clip0_36_16644">
<rect width="133.875" height="36" fill="white" transform="translate(0 0.851562)"/>
</clipPath>
</defs>
</svg>
