<svg width="134" height="37" viewBox="0 0 134 37" fill="none" xmlns="http://www.w3.org/2000/svg">
<g clip-path="url(#clip0_392_2794)">
<path fill-rule="evenodd" clip-rule="evenodd" d="M35.4388 15.3581V24.8233C35.4388 30.9311 30.4515 35.9064 24.3288 35.9064H11.2725C5.10926 35.9064 0.121918 30.9311 0.121918 24.8233V15.3581H7.90704V24.8233C7.90704 27.6952 10.2588 30.0412 13.1377 30.0412H22.4231C25.3019 30.0412 27.6537 27.6952 27.6537 24.8233V15.3581H35.4388ZM15.2461 12.4053H20.3551C21.1661 12.4053 21.8554 13.0525 21.8554 13.9019V22.6794C21.8554 23.4884 21.2066 24.1761 20.3551 24.1761H15.2461C14.4352 24.1761 13.7459 23.5289 13.7459 22.6794V13.9019C13.7459 13.0929 14.4352 12.4053 15.2461 12.4053Z" fill="white"/>
<path fill-rule="evenodd" clip-rule="evenodd" d="M27.6943 1.20065C31.4653 2.41413 34.3847 5.56919 35.2362 9.49278H27.6943V1.20065ZM11.2726 0.674805H21.8555V6.53997H13.1378C11.0699 6.53997 9.28576 7.75346 8.43427 9.49278H0.365311C1.41955 4.47705 5.92032 0.674805 11.2726 0.674805Z" fill="white"/>
<path d="M112.074 18.2295V12.4453H115.52V18.27C115.52 21.0205 115.966 21.3037 118.115 21.3037H120.305V24.1351H117.71C113.898 24.1351 112.074 22.7599 112.074 18.2295ZM104.005 19.5239C104.167 21.1419 104.775 21.3037 106.559 21.3037H110.046V24.1351H106.154C102.383 24.1351 100.518 22.7599 100.518 18.1891C100.518 13.6183 102.342 12.4048 106.154 12.4048H110.046V15.2363H106.559C104.897 15.2363 104.248 15.3576 104.045 16.7329H108.83V19.4835H104.005V19.5239ZM87.7047 12.4453V24.1351H93.0164C96.7873 24.1351 98.6525 22.7599 98.6525 18.1891C98.6525 13.6183 96.8279 12.4048 93.0164 12.4048H87.7047V12.4453ZM95.2465 18.27C95.2465 21.0205 94.8005 21.3037 92.6515 21.3037H90.989V15.2767H92.6515C94.76 15.2767 95.2465 15.479 95.2465 18.27ZM127.563 12.1621C131.334 12.1621 133.402 13.416 133.402 18.1486C133.402 22.9621 131.374 24.3778 127.563 24.3778C123.751 24.3778 121.724 22.9621 121.724 18.1486C121.724 13.416 123.751 12.1621 127.563 12.1621ZM127.563 21.425C129.712 21.425 129.955 21.1419 129.955 18.1486C129.955 15.3576 129.712 15.1149 127.563 15.1149C125.373 15.1149 125.171 15.3576 125.171 18.1486C125.13 21.1419 125.373 21.425 127.563 21.425Z" fill="white"/>
<path d="M67.5117 19.5244C67.6739 21.1424 68.2821 21.3041 70.0662 21.3041H73.5533V24.1356H69.6607C65.8898 24.1356 64.0246 22.7603 64.0246 18.1895C64.0246 13.6188 65.8492 12.4053 69.6607 12.4053H73.5533V15.2367H70.0662C68.4037 15.2367 67.755 15.3581 67.5522 16.7334H72.3368V19.4839H67.5117V19.5244ZM52.7119 24.1356C48.9409 24.1356 47.0757 22.7603 47.0757 18.1895V12.4457H50.5223V18.2704C50.5223 20.9806 50.9683 21.3041 53.0362 21.3041V12.4457H56.2395V21.3041C58.348 21.3041 58.794 20.9806 58.794 18.2704V12.4457H62.2405V18.23C62.2405 22.8008 60.4159 24.1761 56.6044 24.1761C55.3474 24.1356 54.0499 24.1356 52.7119 24.1356ZM78.7839 15.1558H81.5411C81.825 15.1558 82.0277 15.3176 82.0277 16.0053C82.0277 16.7334 81.825 16.8143 81.5411 16.8143H78.7839V15.1558ZM78.7839 21.385V19.403H81.5411C81.9466 19.403 82.2304 19.6053 82.2304 20.4143C82.2304 21.1828 81.9872 21.385 81.6222 21.385H78.7839ZM82.9603 18.0277C85.0688 17.8659 85.5148 16.9356 85.5148 15.2772C85.5148 13.2952 84.9066 12.4457 82.5548 12.4457H75.5806V24.1356H82.5548C84.4606 24.1356 85.7175 23.4075 85.7175 21.021C85.677 19.1199 85.1904 18.1491 82.9603 18.0277Z" fill="white"/>
<path d="M91.1107 28.504C90.7863 28.3827 90.2186 28.3018 89.651 28.3018C88.2724 28.3018 87.7047 28.7467 87.7047 29.8389C87.7047 30.6478 88.1102 30.931 89.0022 31.0523C89.8132 31.1332 89.8943 31.2141 89.8943 31.4164C89.8943 31.6186 89.8132 31.6995 89.205 31.6995C88.7184 31.6995 88.2724 31.6186 87.9885 31.5782L87.7452 32.5894C88.1102 32.7108 88.6373 32.7917 89.205 32.7917C90.6241 32.7917 91.1512 32.4681 91.1512 31.3355C91.1512 30.5265 90.7052 30.122 89.7321 30.0007C89.0022 29.9198 88.9211 29.8793 88.9211 29.6366C88.9211 29.4748 89.0022 29.3535 89.6104 29.3535C90.1375 29.3535 90.543 29.4344 90.8269 29.4748L91.1107 28.504ZM95.8142 32.7108V29.4344H97.2334V28.3827H93.2192V29.4344H94.6383V32.7108H95.8142ZM102.059 28.4231H103.234V31.6186C103.234 32.549 102.464 32.8321 101.369 32.8321C100.234 32.8321 99.504 32.5894 99.504 31.6186V28.4231H100.68V31.3355C100.68 31.5782 100.842 31.6995 101.369 31.6995C101.896 31.6995 102.059 31.5782 102.059 31.3355V28.4231ZM105.748 28.4231V32.7108H107.695C109.073 32.7108 109.763 32.2254 109.763 30.5265C109.763 28.8681 109.073 28.4231 107.695 28.4231H105.748ZM108.506 30.5669C108.506 31.5782 108.343 31.6995 107.532 31.6995H106.924V29.4344H107.532C108.343 29.4344 108.506 29.5153 108.506 30.5669ZM113.29 28.4231V32.7108H112.114V28.4231H113.29ZM118.156 28.3018C119.534 28.3018 120.305 28.7467 120.305 30.486C120.305 32.2658 119.575 32.7917 118.156 32.7917C116.777 32.7917 116.007 32.2658 116.007 30.486C116.007 28.7467 116.737 28.3018 118.156 28.3018ZM118.156 31.6995C118.967 31.6995 119.048 31.5782 119.048 30.486C119.048 29.4748 118.967 29.3535 118.156 29.3535C117.345 29.3535 117.264 29.4344 117.264 30.486C117.264 31.6186 117.345 31.6995 118.156 31.6995Z" fill="white"/>
</g>
<defs>
<clipPath id="clip0_392_2794">
<rect width="133.401" height="36" fill="white" transform="translate(0 0.310547)"/>
</clipPath>
</defs>
</svg>
