<svg width="25" height="25" viewBox="0 0 25 25" fill="none" xmlns="http://www.w3.org/2000/svg">
<path d="M21.1669 8.06055C21.1669 6.81791 20.1595 5.81055 18.9169 5.81055H6.41687C5.17423 5.81055 4.16687 6.81791 4.16687 8.06055V17.5605C4.16687 18.8032 5.17423 19.8105 6.41687 19.8105H18.9169C20.1595 19.8105 21.1669 18.8032 21.1669 17.5605V8.06055ZM22.6669 17.5605C22.6669 19.6316 20.9879 21.3105 18.9169 21.3105H6.41687C4.3458 21.3105 2.66687 19.6316 2.66687 17.5605V8.06055C2.66687 5.98948 4.3458 4.31055 6.41687 4.31055H18.9169C20.9879 4.31055 22.6669 5.98948 22.6669 8.06055V17.5605Z" fill="white" fill-opacity="0.4"/>
<path d="M21.6034 8.12891C21.9797 7.95603 22.4255 8.12086 22.5985 8.49707C22.7714 8.87337 22.6065 9.31918 22.2303 9.49219L13.8153 13.3584C13.5002 13.5032 13.1607 13.5868 12.8153 13.6055L12.6669 13.6094C12.2705 13.6094 11.8786 13.5239 11.5184 13.3584L3.10339 9.49219C2.72718 9.31918 2.56235 8.87337 2.73523 8.49707C2.90823 8.12086 3.35404 7.95603 3.73034 8.12891L12.1454 11.9951C12.309 12.0702 12.4868 12.1094 12.6669 12.1094C12.8469 12.1094 13.0247 12.0702 13.1884 11.9951L21.6034 8.12891Z" fill="white" fill-opacity="0.4"/>
</svg>
