<svg width="25" height="25" viewBox="0 0 25 25" fill="none" xmlns="http://www.w3.org/2000/svg">
<path d="M10.3219 7.13086C10.3219 6.95203 10.2869 6.77456 10.2184 6.60938C10.1499 6.4442 10.0491 6.29428 9.92249 6.16797V6.16699L8.21546 4.45996H8.21448C8.08816 4.33339 7.93825 4.23258 7.77307 4.16406C7.60792 4.09557 7.43038 4.06055 7.25159 4.06055C7.07299 4.0606 6.89607 4.09566 6.73108 4.16406C6.56594 4.23256 6.41598 4.33343 6.28968 4.45996L6.2887 4.46094L5.55921 5.1875C4.61221 6.1345 4.20101 7.44221 4.52796 8.625L4.60413 8.86035V8.86133C5.60808 11.6188 7.20219 14.124 9.27503 16.2012C11.3524 18.2745 13.858 19.8689 16.6158 20.873L16.6178 20.874C17.8594 21.3288 19.2786 20.9278 20.2887 19.917L21.0172 19.1885H21.0182C21.1446 19.0623 21.2446 18.9121 21.3131 18.7471C21.3816 18.5819 21.4166 18.4044 21.4166 18.2256C21.4166 18.0468 21.3816 17.8693 21.3131 17.7041C21.2446 17.5391 21.1446 17.3889 21.0182 17.2627H21.0172L19.3092 15.5547C19.1829 15.4282 19.0329 15.3282 18.8678 15.2598C18.7027 15.1913 18.526 15.1553 18.3473 15.1553C18.1685 15.1553 17.991 15.1912 17.8258 15.2598C17.6608 15.3283 17.5106 15.4282 17.3844 15.5547L17.3834 15.5557L16.9625 15.9756C16.7249 16.2132 16.4429 16.4016 16.1324 16.5303C15.822 16.6589 15.489 16.7255 15.153 16.7256C14.8167 16.7256 14.4831 16.659 14.1725 16.5303C13.8621 16.4016 13.58 16.2132 13.3424 15.9756L9.50257 12.1348C9.26479 11.897 9.07559 11.6143 8.9469 11.3037C8.81829 10.9932 8.75259 10.6603 8.75257 10.3242C8.75257 9.98816 8.81835 9.65522 8.9469 9.34473C9.07559 9.0341 9.26479 8.7514 9.50257 8.51367L9.92249 8.09375V8.09277C10.049 7.96647 10.1499 7.81651 10.2184 7.65137C10.2868 7.48636 10.3219 7.30948 10.3219 7.13086ZM11.8219 7.13086C11.8219 7.50682 11.7482 7.87929 11.6041 8.22656C11.4602 8.57362 11.2489 8.8888 10.983 9.1543L10.5631 9.57422C10.4647 9.67259 10.3859 9.78944 10.3326 9.91797C10.2794 10.0466 10.2526 10.185 10.2526 10.3242C10.2526 10.4633 10.2795 10.601 10.3326 10.7295C10.3859 10.8581 10.4647 10.9748 10.5631 11.0732V11.0742L14.403 14.915C14.5013 15.0134 14.6182 15.0913 14.7467 15.1445C14.8753 15.1978 15.0137 15.2256 15.153 15.2256C15.292 15.2255 15.4298 15.1978 15.5582 15.1445C15.6867 15.0913 15.8036 15.0134 15.902 14.915L15.903 14.9141L16.3239 14.4941C16.5893 14.2285 16.9047 14.0179 17.2516 13.874C17.5989 13.73 17.9713 13.6553 18.3473 13.6553C18.7233 13.6553 19.0957 13.73 19.443 13.874C19.7903 14.0181 20.1061 14.229 20.3717 14.4951H20.3707L22.0768 16.2012C22.343 16.4668 22.5548 16.7825 22.6989 17.1299C22.8429 17.4772 22.9166 17.8496 22.9166 18.2256C22.9166 18.6016 22.8429 18.974 22.6989 19.3213C22.5548 19.6686 22.3439 19.9844 22.0778 20.25L22.0768 20.249L21.3502 20.9775C20.0047 22.3241 17.9889 22.9724 16.1032 22.2822V22.2832C13.1398 21.2043 10.4475 19.4905 8.21546 17.2627L8.21448 17.2617C5.98711 15.03 4.27384 12.3387 3.19495 9.37598L3.1344 9.19922C2.54532 7.36475 3.19585 5.43074 4.49964 4.12695L5.22815 3.39941C5.49364 3.13357 5.80885 2.92229 6.15589 2.77832C6.50313 2.63428 6.87566 2.5606 7.25159 2.56055C7.62766 2.56055 8.0009 2.63423 8.34827 2.77832C8.69507 2.92221 9.00966 3.1338 9.27503 3.39941L10.983 5.10645H10.9821C11.2482 5.3721 11.46 5.68779 11.6041 6.03516C11.7481 6.38239 11.8219 6.75496 11.8219 7.13086Z" fill="white" fill-opacity="0.4"/>
</svg>
