<svg width="24" height="23" viewBox="0 0 24 23" fill="none" xmlns="http://www.w3.org/2000/svg">
<path d="M21.2881 11.3945C21.2881 6.20623 17.0828 2.00019 11.8945 2C6.70611 2 2.5 6.20611 2.5 11.3945C2.50019 16.5828 6.70623 20.7881 11.8945 20.7881C17.0827 20.7879 21.2879 16.5827 21.2881 11.3945ZM23.2881 11.3945C23.2879 17.6872 18.1872 22.7879 11.8945 22.7881C5.60166 22.7881 0.500189 17.6874 0.5 11.3945C0.5 5.10154 5.60154 0 11.8945 0C18.1874 0.000188628 23.2881 5.10166 23.2881 11.3945Z" fill="white"/>
<path d="M11.1152 5.68232C11.1152 5.13004 11.5629 4.68232 12.1152 4.68232C12.6675 4.68232 13.1152 5.13004 13.1152 5.68232V10.8952L16.7949 14.5749C17.1852 14.9654 17.1853 15.5985 16.7949 15.989C16.4044 16.3794 15.7714 16.3793 15.3808 15.989L11.4082 12.0163C11.2207 11.8289 11.1153 11.5744 11.1152 11.3093V5.68232Z" fill="white"/>
</svg>
