<svg width="24" height="24" viewBox="0 0 24 24" fill="none" xmlns="http://www.w3.org/2000/svg">
<path d="M8.84668 16.8155C9.42507 17.5527 9.95152 18.3292 10.4222 19.1394C10.8241 19.9013 10.9916 20.418 11.2853 21.3361C11.4654 21.8433 11.6282 21.9947 11.9781 21.9947C12.3595 21.9947 12.5325 21.7372 12.6662 21.3389C12.9438 20.4718 13.1616 19.8101 13.5053 19.1849C14.1796 17.9778 15.0175 16.9052 15.8408 15.8743C16.0637 15.5825 17.5048 13.8827 18.1536 12.5415C18.1536 12.5415 18.951 11.0682 18.951 9.01063C18.951 7.08595 18.1646 5.75107 18.1646 5.75107L15.9006 6.35739L14.5256 9.9787L14.1855 10.478L14.1175 10.5685L14.027 10.6817L13.8682 10.8626L13.6413 11.0895L12.4169 12.087L9.35589 13.8544L8.84668 16.8155Z" fill="#34A853"/>
<path d="M5.68726 12.2939C6.43434 14.0003 7.87499 15.5003 8.84971 16.8167L14.0269 10.6841C14.0269 10.6841 13.2975 11.638 11.9744 11.638C10.5007 11.638 9.31014 10.4612 9.31014 8.97723C9.31014 7.95963 9.92235 7.26056 9.92235 7.26056L6.40796 8.20225L5.68726 12.2939Z" fill="#FBBC04"/>
<path d="M14.0847 2.31537C15.8042 2.86976 17.2759 4.03362 18.1661 5.74986L14.0285 10.6805C14.0285 10.6805 14.6407 9.96883 14.6407 8.95755C14.6407 7.43907 13.362 6.30469 11.9807 6.30469C10.6745 6.30469 9.92432 7.257 9.92432 7.257V4.15074L14.0847 2.31537Z" fill="#4285F4"/>
<path d="M6.63574 4.49401C7.66272 3.26529 9.4698 2 11.9611 2C13.1699 2 14.0805 2.31733 14.0805 2.31733L9.92048 7.25973H6.97307L6.63574 4.49401Z" fill="#1A73E8"/>
<path d="M5.68726 12.2939C5.68726 12.2939 5 10.9479 5 8.99805C5 7.15516 5.71645 5.54425 6.63574 4.49401L9.92235 7.26056L5.68726 12.2939Z" fill="#EA4335"/>
</svg>
