<svg width="24" height="24" viewBox="0 0 24 24" fill="none" xmlns="http://www.w3.org/2000/svg">
<path d="M12 20.2097V12.0001M12 12.0001L19.167 7.86242M12 12.0001L4.83299 7.86242M19.3887 15.2905V8.70801C19.3882 8.42155 19.312 8.14031 19.1678 7.89278C19.0236 7.64524 18.8166 7.4402 18.5677 7.29842L12.821 4.008C12.5708 3.86547 12.2879 3.79053 12 3.79053C11.7121 3.79053 11.4292 3.86547 11.179 4.008L5.43229 7.29842C4.92412 7.58986 4.61133 8.12759 4.61133 8.70883V15.2913C4.61133 15.8734 4.92412 16.4103 5.43229 16.7009L11.179 19.9913C11.4292 20.1339 11.7121 20.2088 12 20.2088C12.2879 20.2088 12.5708 20.1339 12.821 19.9913L18.5677 16.7009C19.0759 16.4095 19.3887 15.8717 19.3887 15.2905Z" stroke="#3DC812" stroke-width="1.5" stroke-linecap="round" stroke-linejoin="round"/>
</svg>
