<svg width="24" height="24" viewBox="0 0 24 24" fill="none" xmlns="http://www.w3.org/2000/svg">
<path d="M19.3154 9.50781C19.3154 7.43701 18.4926 5.45061 17.0283 3.98633C15.5641 2.52226 13.5784 1.69928 11.5078 1.69922C9.43701 1.69922 7.45061 2.52205 5.98633 3.98633C4.52205 5.45061 3.69922 7.43701 3.69922 9.50781C3.69931 11.9229 5.05508 14.4929 6.77441 16.752C8.45359 18.9582 10.3808 20.7387 11.377 21.6016C11.4156 21.6282 11.4607 21.6445 11.5078 21.6445C11.5547 21.6445 11.5991 21.628 11.6377 21.6016C12.6338 20.7388 14.5609 18.9584 16.2402 16.752C17.9597 14.4928 19.3153 11.9229 19.3154 9.50781ZM21.0156 9.50781C21.0155 12.4961 19.3737 15.4413 17.5928 17.7812C15.7923 20.1469 13.7419 22.0322 12.7139 22.9199C12.6995 22.9324 12.6842 22.9446 12.6689 22.9561C12.3342 23.2078 11.9266 23.3447 11.5078 23.3447C11.089 23.3447 10.6815 23.2078 10.3467 22.9561C10.3314 22.9446 10.3162 22.9324 10.3018 22.9199C9.27382 22.0323 7.22251 20.1471 5.42188 17.7812C3.64101 15.4413 2.00009 12.496 2 9.50781C2 6.98614 3.00109 4.56727 4.78418 2.78418C6.56727 1.00109 8.98614 0 11.5078 0C14.0293 6.36443e-05 16.4475 1.0013 18.2305 2.78418C20.0136 4.56727 21.0156 6.98614 21.0156 9.50781Z" fill="#EA4A35"/>
<path d="M13.9042 9.50788C13.9042 8.18431 12.8312 7.1106 11.5077 7.11042C10.184 7.11042 9.11023 8.1842 9.11023 9.50788C9.11041 10.8314 10.1841 11.9044 11.5077 11.9044C12.8311 11.9042 13.904 10.8313 13.9042 9.50788ZM15.6044 9.50788C15.6042 11.7702 13.77 13.6044 11.5077 13.6046C9.24524 13.6046 7.4112 11.7703 7.41102 9.50788C7.41102 7.24532 9.24513 5.4112 11.5077 5.4112C13.7701 5.41138 15.6044 7.24543 15.6044 9.50788Z" fill="#EA4A35"/>
</svg>
