<svg width="24" height="24" viewBox="0 0 24 24" fill="none" xmlns="http://www.w3.org/2000/svg">
<path d="M20.6662 11.7335C20.6662 9.36429 19.7252 7.09133 18.0499 5.41605C16.3748 3.74092 14.1025 2.79993 11.7335 2.79982C9.36429 2.79982 7.09133 3.74078 5.41605 5.41605C3.74078 7.09133 2.79982 9.36429 2.79982 11.7335C2.79992 14.1025 3.74093 16.3748 5.41605 18.0499C7.09133 19.7252 9.36429 20.6662 11.7335 20.6662V22.466L11.2013 22.4533C8.54829 22.3218 6.03072 21.2096 4.14358 19.3224C2.2567 17.4355 1.14537 14.9183 1.01367 12.2657L1 11.7335C1 8.8869 2.13074 6.15643 4.14358 4.14358C6.15642 2.13074 8.8869 1 11.7335 1L12.2657 1.01367C14.9183 1.14537 17.4355 2.25669 19.3224 4.14358C21.3353 6.15643 22.466 8.8869 22.466 11.7335L22.4533 12.2657C22.3216 14.9184 21.2094 17.4355 19.3224 19.3224C17.3097 21.3352 14.5799 22.4659 11.7335 22.466V20.6662C14.1025 20.6661 16.3748 19.7251 18.0499 18.0499C19.7251 16.3748 20.6661 14.1025 20.6662 11.7335Z" fill="#EA4A35"/>
<path d="M13.7769 9.4332L18.3462 10.0953L15.0396 13.3199L15.8208 17.8717L11.732 15.7232L7.64507 17.8717L8.42534 13.3189L5.11968 10.0953L9.68706 9.4332L11.732 5.29257L13.7769 9.4332ZM10.6177 10.7125L8.12651 11.0728L9.93022 12.8316L9.50347 15.3121L11.732 14.1422L13.9615 15.3121L13.5357 12.8316L15.3384 11.0728L12.8472 10.7125L11.732 8.4537L10.6177 10.7125Z" fill="#EA4A35"/>
</svg>
