<svg width="96" height="16" viewBox="0 0 96 16" fill="none" xmlns="http://www.w3.org/2000/svg">
<g clip-path="url(#clip0_75_662)">
<path d="M8.00001 12.7139L4.33374 14.9225C4.17178 15.0256 4.00245 15.0698 3.82577 15.055C3.64908 15.0403 3.49448 14.9814 3.36196 14.8783C3.22945 14.7753 3.12638 14.6466 3.05276 14.4923C2.97914 14.338 2.96442 14.1648 3.00859 13.9728L3.98037 9.79859L0.733737 6.99367C0.586497 6.86116 0.49462 6.71009 0.458104 6.54047C0.421589 6.37085 0.432485 6.20535 0.490792 6.04398C0.549098 5.8826 0.637442 5.75009 0.755823 5.64643C0.874203 5.54277 1.03617 5.47652 1.24171 5.44766L5.52638 5.0722L7.18283 1.1409C7.25645 0.964215 7.37071 0.831699 7.5256 0.743355C7.6805 0.655012 7.83863 0.61084 8.00001 0.61084C8.16138 0.61084 8.31952 0.655012 8.47441 0.743355C8.62931 0.831699 8.74357 0.964215 8.81719 1.1409L10.4736 5.0722L14.7583 5.44766C14.9644 5.47711 15.1264 5.54336 15.2442 5.64643C15.362 5.7495 15.4503 5.88202 15.5092 6.04398C15.5681 6.20594 15.5793 6.37173 15.5428 6.54135C15.5063 6.71097 15.4141 6.86175 15.2663 6.99367L12.0196 9.79859L12.9914 13.9728C13.0356 14.1642 13.0209 14.3374 12.9473 14.4923C12.8736 14.6472 12.7706 14.7759 12.6381 14.8783C12.5055 14.9808 12.3509 15.0397 12.1742 15.055C11.9976 15.0703 11.8282 15.0262 11.6663 14.9225L8.00001 12.7139Z" fill="#FFBB29"/>
</g>
<g clip-path="url(#clip1_75_662)">
<path d="M28 12.7139L24.3337 14.9225C24.1718 15.0256 24.0025 15.0698 23.8258 15.055C23.6491 15.0403 23.4945 14.9814 23.362 14.8783C23.2294 14.7753 23.1264 14.6466 23.0528 14.4923C22.9791 14.338 22.9644 14.1648 23.0086 13.9728L23.9804 9.79859L20.7337 6.99367C20.5865 6.86116 20.4946 6.71009 20.4581 6.54047C20.4216 6.37085 20.4325 6.20535 20.4908 6.04398C20.5491 5.8826 20.6374 5.75009 20.7558 5.64643C20.8742 5.54277 21.0362 5.47652 21.2417 5.44766L25.5264 5.0722L27.1828 1.1409C27.2564 0.964215 27.3707 0.831699 27.5256 0.743355C27.6805 0.655012 27.8386 0.61084 28 0.61084C28.1614 0.61084 28.3195 0.655012 28.4744 0.743355C28.6293 0.831699 28.7436 0.964215 28.8172 1.1409L30.4736 5.0722L34.7583 5.44766C34.9644 5.47711 35.1264 5.54336 35.2442 5.64643C35.362 5.7495 35.4503 5.88202 35.5092 6.04398C35.5681 6.20594 35.5793 6.37173 35.5428 6.54135C35.5063 6.71097 35.4141 6.86175 35.2663 6.99367L32.0196 9.79859L32.9914 13.9728C33.0356 14.1642 33.0209 14.3374 32.9473 14.4923C32.8736 14.6472 32.7706 14.7759 32.6381 14.8783C32.5055 14.9808 32.3509 15.0397 32.1742 15.055C31.9976 15.0703 31.8282 15.0262 31.6663 14.9225L28 12.7139Z" fill="#FFBB29"/>
</g>
<g clip-path="url(#clip2_75_662)">
<path d="M48 12.7139L44.3337 14.9225C44.1718 15.0256 44.0025 15.0698 43.8258 15.055C43.6491 15.0403 43.4945 14.9814 43.362 14.8783C43.2294 14.7753 43.1264 14.6466 43.0528 14.4923C42.9791 14.338 42.9644 14.1648 43.0086 13.9728L43.9804 9.79859L40.7337 6.99367C40.5865 6.86116 40.4946 6.71009 40.4581 6.54047C40.4216 6.37085 40.4325 6.20535 40.4908 6.04398C40.5491 5.8826 40.6374 5.75009 40.7558 5.64643C40.8742 5.54277 41.0362 5.47652 41.2417 5.44766L45.5264 5.0722L47.1828 1.1409C47.2564 0.964215 47.3707 0.831699 47.5256 0.743355C47.6805 0.655012 47.8386 0.61084 48 0.61084C48.1614 0.61084 48.3195 0.655012 48.4744 0.743355C48.6293 0.831699 48.7436 0.964215 48.8172 1.1409L50.4736 5.0722L54.7583 5.44766C54.9644 5.47711 55.1264 5.54336 55.2442 5.64643C55.362 5.7495 55.4503 5.88202 55.5092 6.04398C55.5681 6.20594 55.5793 6.37173 55.5428 6.54135C55.5063 6.71097 55.4141 6.86175 55.2663 6.99367L52.0196 9.79859L52.9914 13.9728C53.0356 14.1642 53.0209 14.3374 52.9473 14.4923C52.8736 14.6472 52.7706 14.7759 52.6381 14.8783C52.5055 14.9808 52.3509 15.0397 52.1742 15.055C51.9976 15.0703 51.8282 15.0262 51.6663 14.9225L48 12.7139Z" fill="#FFBB29"/>
</g>
<g clip-path="url(#clip3_75_662)">
<path d="M68 12.7139L64.3337 14.9225C64.1718 15.0256 64.0025 15.0698 63.8258 15.055C63.6491 15.0403 63.4945 14.9814 63.362 14.8783C63.2294 14.7753 63.1264 14.6466 63.0528 14.4923C62.9791 14.338 62.9644 14.1648 63.0086 13.9728L63.9804 9.79859L60.7337 6.99367C60.5865 6.86116 60.4946 6.71009 60.4581 6.54047C60.4216 6.37085 60.4325 6.20535 60.4908 6.04398C60.5491 5.8826 60.6374 5.75009 60.7558 5.64643C60.8742 5.54277 61.0362 5.47652 61.2417 5.44766L65.5264 5.0722L67.1828 1.1409C67.2564 0.964215 67.3707 0.831699 67.5256 0.743355C67.6805 0.655012 67.8386 0.61084 68 0.61084C68.1614 0.61084 68.3195 0.655012 68.4744 0.743355C68.6293 0.831699 68.7436 0.964215 68.8172 1.1409L70.4736 5.0722L74.7583 5.44766C74.9644 5.47711 75.1264 5.54336 75.2442 5.64643C75.362 5.7495 75.4503 5.88202 75.5092 6.04398C75.5681 6.20594 75.5793 6.37173 75.5428 6.54135C75.5063 6.71097 75.4141 6.86175 75.2663 6.99367L72.0196 9.79859L72.9914 13.9728C73.0356 14.1642 73.0209 14.3374 72.9473 14.4923C72.8736 14.6472 72.7706 14.7759 72.6381 14.8783C72.5055 14.9808 72.3509 15.0397 72.1742 15.055C71.9976 15.0703 71.8282 15.0262 71.6663 14.9225L68 12.7139Z" fill="#FFBB29"/>
</g>
<g clip-path="url(#clip4_75_662)">
<path d="M88 12.7139L84.3337 14.9225C84.1718 15.0256 84.0025 15.0698 83.8258 15.055C83.6491 15.0403 83.4945 14.9814 83.362 14.8783C83.2294 14.7753 83.1264 14.6466 83.0528 14.4923C82.9791 14.338 82.9644 14.1648 83.0086 13.9728L83.9804 9.79859L80.7337 6.99367C80.5865 6.86116 80.4946 6.71009 80.4581 6.54047C80.4216 6.37085 80.4325 6.20535 80.4908 6.04398C80.5491 5.8826 80.6374 5.75009 80.7558 5.64643C80.8742 5.54277 81.0362 5.47652 81.2417 5.44766L85.5264 5.0722L87.1828 1.1409C87.2564 0.964215 87.3707 0.831699 87.5256 0.743355C87.6805 0.655012 87.8386 0.61084 88 0.61084C88.1614 0.61084 88.3195 0.655012 88.4744 0.743355C88.6293 0.831699 88.7436 0.964215 88.8172 1.1409L90.4736 5.0722L94.7583 5.44766C94.9644 5.47711 95.1264 5.54336 95.2442 5.64643C95.362 5.7495 95.4503 5.88202 95.5092 6.04398C95.5681 6.20594 95.5793 6.37173 95.5428 6.54135C95.5063 6.71097 95.4141 6.86175 95.2663 6.99367L92.0196 9.79859L92.9914 13.9728C93.0356 14.1642 93.0209 14.3374 92.9473 14.4923C92.8736 14.6472 92.7706 14.7759 92.6381 14.8783C92.5055 14.9808 92.3509 15.0397 92.1742 15.055C91.9976 15.0703 91.8282 15.0262 91.6663 14.9225L88 12.7139Z" fill="#FFBB29"/>
</g>
<defs>
<clipPath id="clip0_75_662">
<rect width="16" height="16" fill="white"/>
</clipPath>
<clipPath id="clip1_75_662">
<rect width="16" height="16" fill="white" transform="translate(20)"/>
</clipPath>
<clipPath id="clip2_75_662">
<rect width="16" height="16" fill="white" transform="translate(40)"/>
</clipPath>
<clipPath id="clip3_75_662">
<rect width="16" height="16" fill="white" transform="translate(60)"/>
</clipPath>
<clipPath id="clip4_75_662">
<rect width="16" height="16" fill="white" transform="translate(80)"/>
</clipPath>
</defs>
</svg>
