<svg width="24" height="24" viewBox="0 0 24 24" fill="none" xmlns="http://www.w3.org/2000/svg">
<path d="M3 6.125C3 5.2962 3.32924 4.50134 3.91529 3.91529C4.50134 3.32924 5.2962 3 6.125 3H17.875C18.7038 3 19.4987 3.32924 20.0847 3.91529C20.6708 4.50134 21 5.2962 21 6.125V17.875C21 18.7038 20.6708 19.4987 20.0847 20.0847C19.4987 20.6708 18.7038 21 17.875 21H6.125C5.2962 21 4.50134 20.6708 3.91529 20.0847C3.32924 19.4987 3 18.7038 3 17.875V6.125ZM4.25 17.875C4.25 18.3723 4.44754 18.8492 4.79917 19.2008C5.15081 19.5525 5.62772 19.75 6.125 19.75H17.875C18.3723 19.75 18.8492 19.5525 19.2008 19.2008C19.5525 18.8492 19.75 18.3723 19.75 17.875V9.25H4.25V17.875ZM4.25 6.125V8H19.75V6.125C19.75 5.62772 19.5525 5.15081 19.2008 4.79917C18.8492 4.44754 18.3723 4.25 17.875 4.25H6.125C5.62772 4.25 5.15081 4.44754 4.79917 4.79917C4.44754 5.15081 4.25 5.62772 4.25 6.125ZM8 7.125C8.26522 7.125 8.51957 7.01964 8.70711 6.83211C8.89464 6.64457 9 6.39022 9 6.125C9 5.85978 8.89464 5.60543 8.70711 5.41789C8.51957 5.23036 8.26522 5.125 8 5.125C7.73478 5.125 7.48043 5.23036 7.29289 5.41789C7.10536 5.60543 7 5.85978 7 6.125C7 6.39022 7.10536 6.64457 7.29289 6.83211C7.48043 7.01964 7.73478 7.125 8 7.125ZM12 7.125C12.2652 7.125 12.5196 7.01964 12.7071 6.83211C12.8946 6.64457 13 6.39022 13 6.125C13 5.85978 12.8946 5.60543 12.7071 5.41789C12.5196 5.23036 12.2652 5.125 12 5.125C11.7348 5.125 11.4804 5.23036 11.2929 5.41789C11.1054 5.60543 11 5.85978 11 6.125C11 6.39022 11.1054 6.64457 11.2929 6.83211C11.4804 7.01964 11.7348 7.125 12 7.125ZM17 6.125C17 6.39022 16.8946 6.64457 16.7071 6.83211C16.5196 7.01964 16.2652 7.125 16 7.125C15.7348 7.125 15.4804 7.01964 15.2929 6.83211C15.1054 6.64457 15 6.39022 15 6.125C15 5.85978 15.1054 5.60543 15.2929 5.41789C15.4804 5.23036 15.7348 5.125 16 5.125C16.2652 5.125 16.5196 5.23036 16.7071 5.41789C16.8946 5.60543 17 5.85978 17 6.125ZM6.75 17.25V11.75H17.25V17.25H6.75ZM6.375 10.5C6.14294 10.5 5.92038 10.5922 5.75628 10.7563C5.59219 10.9204 5.5 11.1429 5.5 11.375V17.625C5.5 18.1085 5.892 18.5 6.375 18.5H17.625C17.8571 18.5 18.0796 18.4078 18.2437 18.2437C18.4078 18.0796 18.5 17.8571 18.5 17.625V11.375C18.5 11.1429 18.4078 10.9204 18.2437 10.7563C18.0796 10.5922 17.8571 10.5 17.625 10.5H6.375Z" fill="#3DC812"/>
</svg>
