<svg width="24" height="24" viewBox="0 0 24 24" fill="none" xmlns="http://www.w3.org/2000/svg">
<path fill-rule="evenodd" clip-rule="evenodd" d="M15.2587 9.3064C14.3394 8.55381 13.188 8.14268 12 8.14286C10.9828 8.14286 9.98852 8.44448 9.14278 9.00958C8.29704 9.57469 7.63787 10.3779 7.24862 11.3176C6.85937 12.2574 6.75752 13.2914 6.95596 14.289C7.1544 15.2867 7.64421 16.203 8.36345 16.9223C9.08269 17.6415 9.99906 18.1313 10.9967 18.3298C11.9943 18.5282 13.0284 18.4263 13.9681 18.0371C14.9078 17.6478 15.711 16.9887 16.2761 16.1429C16.8412 15.2972 17.1429 14.3029 17.1429 13.2857C17.142 12.9583 17.1124 12.639 17.0541 12.3279L17.0747 12.288L17.0426 12.2713C16.8082 11.1066 16.1779 10.059 15.2587 9.3064ZM12.1556 12.6621C10.7361 12.306 9.624 12.477 8.76514 12.8589C8.54986 12.9552 8.34226 13.0678 8.14414 13.1957C8.16659 12.2884 8.50817 11.418 9.10884 10.7376C9.7095 10.0572 10.5308 9.61032 11.4283 9.47552C12.3259 9.34072 13.2422 9.52664 14.0162 10.0006C14.7903 10.4745 15.3724 11.2062 15.6604 12.0669C15.1539 12.5799 14.0366 13.1314 12.1556 12.6621ZM8.50328 6.89614C8.68412 6.7153 8.78571 6.47003 8.78571 6.21429C8.78571 5.95854 8.68412 5.71327 8.50328 5.53243C8.32244 5.35159 8.07717 5.25 7.82143 5.25C7.56568 5.25 7.32041 5.35159 7.13958 5.53243C6.95874 5.71327 6.85714 5.95854 6.85714 6.21429C6.85714 6.47003 6.95874 6.7153 7.13958 6.89614C7.32041 7.07698 7.56568 7.17857 7.82143 7.17857C8.07717 7.17857 8.32244 7.07698 8.50328 6.89614ZM12.1883 5.75972C12.3088 5.63916 12.4724 5.57143 12.6429 5.57143H16.5C16.6705 5.57143 16.834 5.63916 16.9546 5.75972C17.0751 5.88028 17.1429 6.04379 17.1429 6.21429C17.1429 6.38478 17.0751 6.5483 16.9546 6.66885C16.834 6.78941 16.6705 6.85714 16.5 6.85714H12.6429C12.4724 6.85714 12.3088 6.78941 12.1883 6.66885C12.0677 6.5483 12 6.38478 12 6.21429C12 6.04379 12.0677 5.88028 12.1883 5.75972ZM4.12973 4.12973C4.85309 3.40638 5.83417 3 6.85714 3H17.1429C18.1658 3 19.1469 3.40638 19.8703 4.12973C20.5936 4.85309 21 5.83417 21 6.85714V17.1429C21 18.1658 20.5936 19.1469 19.8703 19.8703C19.1469 20.5936 18.1658 21 17.1429 21H6.85714C5.83417 21 4.85309 20.5936 4.12973 19.8703C3.40638 19.1469 3 18.1658 3 17.1429V6.85714C3 5.83417 3.40638 4.85309 4.12973 4.12973ZM5.03887 5.03887C4.55663 5.5211 4.28571 6.17516 4.28571 6.85714V17.1429C4.28571 17.8248 4.55663 18.4789 5.03887 18.9611C5.5211 19.4434 6.17516 19.7143 6.85714 19.7143H17.1429C17.8248 19.7143 18.4789 19.4434 18.9611 18.9611C19.4434 18.4789 19.7143 17.8248 19.7143 17.1429V6.85714C19.7143 6.17516 19.4434 5.5211 18.9611 5.03887C18.4789 4.55663 17.8248 4.28571 17.1429 4.28571H6.85714C6.17516 4.28571 5.5211 4.55663 5.03887 5.03887ZM11.7467 13.9074C13.1662 14.2635 14.2783 14.0925 15.1372 13.7107C15.3524 13.6144 15.56 13.5018 15.7582 13.3738C15.7357 14.2811 15.3941 15.1515 14.7935 15.8319C14.1928 16.5123 13.3715 16.9592 12.474 17.094C11.5764 17.2288 10.6601 17.0429 9.88607 16.569C9.11204 16.095 8.52986 15.3634 8.24187 14.5027C8.74844 13.9897 9.86573 13.4381 11.7467 13.9074Z" fill="#EA4A35"/>
</svg>
