<svg width="24" height="24" viewBox="0 0 24 24" fill="none" xmlns="http://www.w3.org/2000/svg">
<path d="M8.07888 16.4215C5.92828 14.2667 4.27439 11.6681 3.23288 8.80749C2.65988 7.24349 3.18488 5.52549 4.36288 4.34749L5.09188 3.61949C5.28786 3.42311 5.52066 3.2673 5.77693 3.161C6.03321 3.0547 6.30793 2.99998 6.58538 2.99998C6.86282 2.99998 7.13755 3.0547 7.39382 3.161C7.6501 3.2673 7.88289 3.42311 8.07888 3.61949L9.78588 5.32649C9.98226 5.52248 10.1381 5.75527 10.2444 6.01154C10.3507 6.26782 10.4054 6.54254 10.4054 6.81999C10.4054 7.09744 10.3507 7.37216 10.2444 7.62843C10.1381 7.88471 9.98226 8.1175 9.78588 8.31349L9.36588 8.73349C9.19776 8.90157 9.0644 9.10112 8.97342 9.32074C8.88243 9.54037 8.8356 9.77576 8.8356 10.0135C8.8356 10.2512 8.88243 10.4866 8.97342 10.7062C9.0644 10.9259 9.19776 11.1254 9.36588 11.2935L13.2059 15.1345C13.374 15.3026 13.5735 15.436 13.7931 15.5269C14.0128 15.6179 14.2482 15.6648 14.4859 15.6648C14.7236 15.6648 14.959 15.6179 15.1786 15.5269C15.3982 15.436 15.5978 15.3026 15.7659 15.1345L16.1869 14.7145C16.3829 14.5181 16.6157 14.3623 16.8719 14.256C17.1282 14.1497 17.4029 14.095 17.6804 14.095C17.9578 14.095 18.2325 14.1497 18.4888 14.256C18.7451 14.3623 18.9779 14.5181 19.1739 14.7145L20.8809 16.4215C21.0773 16.6175 21.2331 16.8503 21.3394 17.1065C21.4457 17.3628 21.5004 17.6375 21.5004 17.915C21.5004 18.1924 21.4457 18.4672 21.3394 18.7234C21.2331 18.9797 21.0773 19.2125 20.8809 19.4085L20.1529 20.1365C18.9749 21.3155 17.2569 21.8405 15.6929 21.2675C12.8322 20.226 10.2336 18.5721 8.07888 16.4215Z" stroke="white" stroke-width="1.5" stroke-linejoin="round"/>
</svg>
