<svg width="24" height="25" viewBox="0 0 24 25" fill="none" xmlns="http://www.w3.org/2000/svg">
<path d="M19 12.8516C19 13.1168 18.8946 13.3711 18.7071 13.5587C18.5196 13.7462 18.2652 13.8516 18 13.8516C17.7348 13.8516 17.4804 13.7462 17.2929 13.5587C17.1054 13.3711 17 13.1168 17 12.8516C17 12.5863 17.1054 12.332 17.2929 12.1445C17.4804 11.9569 17.7348 11.8516 18 11.8516C18.2652 11.8516 18.5196 11.9569 18.7071 12.1445C18.8946 12.332 19 12.5863 19 12.8516Z" fill="#EA4A35"/>
<path d="M18 13.8516C17.7679 13.8516 17.5442 13.7708 17.3662 13.625L17.2929 13.5587C17.1054 13.3711 17 13.1168 17 12.8516C17 12.6195 17.0807 12.3957 17.2266 12.2178L17.2929 12.1445C17.4804 11.9569 17.7348 11.8516 18 11.8516C18.2652 11.8516 18.5196 11.9569 18.7071 12.1445C18.8946 12.332 19 12.5863 19 12.8516C19 13.1168 18.8946 13.3711 18.7071 13.5587C18.5196 13.7462 18.2652 13.8516 18 13.8516Z" fill="#EA4A35"/>
<path fill-rule="evenodd" clip-rule="evenodd" d="M9.944 4.10156H13.056C14.894 4.10156 16.35 4.10156 17.489 4.25456C18.661 4.41256 19.61 4.74456 20.359 5.49256C21.283 6.41756 21.578 7.65556 21.685 9.26256C22.262 9.51556 22.698 10.0526 22.745 10.7326C22.75 10.7936 22.75 10.8586 22.75 10.9186V14.7846C22.75 14.8446 22.75 14.9096 22.746 14.9696C22.698 15.6496 22.262 16.1876 21.685 16.4416C21.578 18.0476 21.283 19.2856 20.359 20.2106C19.61 20.9586 18.661 21.2906 17.489 21.4486C16.349 21.6016 14.894 21.6016 13.056 21.6016H9.944C8.106 21.6016 6.65 21.6016 5.511 21.4486C4.339 21.2906 3.39 20.9586 2.641 20.2106C1.893 19.4616 1.561 18.5126 1.403 17.3406C1.25 16.2006 1.25 14.7456 1.25 12.9076V12.7956C1.25 10.9576 1.25 9.50156 1.403 8.36256C1.561 7.19056 1.893 6.24156 2.641 5.49256C3.39 4.74456 4.339 4.41256 5.511 4.25456C6.651 4.10156 8.106 4.10156 9.944 4.10156ZM20.168 16.6016H18.23C16.085 16.6016 14.249 14.9736 14.249 12.8516C14.249 10.7296 16.085 9.10156 18.229 9.10156H20.167C20.053 7.76056 19.796 7.05156 19.297 6.55356C18.874 6.13056 18.294 5.87656 17.288 5.74156C16.261 5.60356 14.906 5.60156 12.999 5.60156H9.999C8.092 5.60156 6.738 5.60356 5.709 5.74156C4.704 5.87656 4.124 6.13056 3.701 6.55356C3.278 6.97656 3.025 7.55656 2.89 8.56156C2.752 9.58956 2.75 10.9436 2.75 12.8506C2.75 14.7576 2.752 16.1126 2.89 17.1406C3.025 18.1456 3.279 18.7256 3.702 19.1486C4.125 19.5716 4.705 19.8256 5.711 19.9606C6.739 20.0986 8.093 20.1006 10 20.1006H13C14.907 20.1006 16.262 20.0986 17.29 19.9606C18.295 19.8256 18.875 19.5716 19.298 19.1486C19.797 18.6506 20.054 17.9426 20.168 16.6006M5.25 8.85156C5.25 8.65265 5.32902 8.46188 5.46967 8.32123C5.61032 8.18058 5.80109 8.10156 6 8.10156H10C10.1989 8.10156 10.3897 8.18058 10.5303 8.32123C10.671 8.46188 10.75 8.65265 10.75 8.85156C10.75 9.05047 10.671 9.24124 10.5303 9.38189C10.3897 9.52254 10.1989 9.60156 10 9.60156H6C5.80109 9.60156 5.61032 9.52254 5.46967 9.38189C5.32902 9.24124 5.25 9.05047 5.25 8.85156ZM20.924 10.6016H18.23C16.806 10.6016 15.749 11.6606 15.749 12.8516C15.749 14.0426 16.806 15.1016 18.229 15.1016H20.947C21.153 15.0886 21.242 14.9496 21.249 14.8656V10.8376C21.242 10.7536 21.153 10.6146 20.947 10.6026L20.924 10.6016Z" fill="#EA4A35"/>
<path d="M22.4961 10.7529L22.4951 10.75C22.4553 10.1732 22.0866 9.71125 21.585 9.49121L21.4453 9.43066L21.4355 9.2793C21.3295 7.68712 21.0394 6.52799 20.1826 5.66992L20.0498 5.54395C19.3757 4.93658 18.5288 4.64662 17.4561 4.50195C16.3375 4.3517 14.9003 4.35156 13.0557 4.35156H9.94434C8.09971 4.35156 6.66355 4.35169 5.54395 4.50195C4.39972 4.65625 3.51212 4.97611 2.81738 5.66992C2.12399 6.36457 1.80465 7.25162 1.65039 8.39551C1.50013 9.51409 1.5 10.9513 1.5 12.7959V12.9072C1.5 14.7519 1.50013 16.188 1.65039 17.3076C1.80465 18.4515 2.12399 19.3386 2.81738 20.0332C3.51212 20.727 4.39973 21.0469 5.54395 21.2012C6.66253 21.3514 8.09969 21.3516 9.94434 21.3516H13.0557C14.9003 21.3516 16.3364 21.3514 17.4561 21.2012C18.6003 21.0469 19.4879 20.727 20.1826 20.0332C21.0394 19.1751 21.3295 18.016 21.4355 16.4248L21.4453 16.2734L21.584 16.2129C22.0855 15.9921 22.4549 15.5298 22.4961 14.9531L22.5 14.7842V10.9189C22.5 10.857 22.5001 10.8019 22.4961 10.7529ZM2.5 12.8506C2.5 10.9507 2.50183 9.57682 2.64258 8.52832C2.78129 7.49567 3.04718 6.85419 3.52441 6.37695C4.00152 5.89985 4.64286 5.63289 5.67578 5.49414C6.72526 5.35339 8.09908 5.35156 9.99902 5.35156H12.999C14.8989 5.35156 16.2738 5.35338 17.3213 5.49414L17.6914 5.55176C18.5132 5.70237 19.0562 5.95952 19.4736 6.37695L19.5752 6.48438C20.0686 7.03829 20.3077 7.80628 20.416 9.08008L20.4395 9.35156H18.2285C16.204 9.35181 14.499 10.8859 14.499 12.8516C14.499 14.8174 16.2047 16.3516 18.2305 16.3516H20.168L20.168 16.6006L20.417 16.6221C20.3087 17.8965 20.0703 18.664 19.5771 19.2178L19.4746 19.3252C18.9975 19.8023 18.3562 20.0693 17.3232 20.208C16.2747 20.3488 14.8999 20.3506 13 20.3506H10C8.10007 20.3506 6.72624 20.3488 5.67773 20.208C4.64386 20.0693 4.00251 19.8023 3.52539 19.3252C3.10786 18.9077 2.85079 18.3645 2.7002 17.543L2.64258 17.1738C2.50183 16.1253 2.5 14.7505 2.5 12.8506ZM20.9346 10.3516L20.958 10.3525H20.9619C21.2874 10.3717 21.4802 10.6043 21.498 10.8164L21.499 10.8271V14.876L21.498 14.8867C21.4802 15.0989 21.2876 15.33 20.9629 15.3506L20.9551 15.3516H18.2285C16.6836 15.3513 15.499 14.1959 15.499 12.8516C15.499 11.507 16.6844 10.3516 18.2305 10.3516H20.9346ZM10.5 8.85156C10.5 8.71895 10.4473 8.59182 10.3535 8.49805C10.2831 8.42764 10.1939 8.3805 10.0977 8.36133L10 8.35156H6C5.86739 8.35156 5.74025 8.40428 5.64648 8.49805C5.55272 8.59181 5.5 8.71895 5.5 8.85156L5.50977 8.94922C5.52894 9.04545 5.57608 9.13467 5.64648 9.20508C5.74025 9.29885 5.86739 9.35156 6 9.35156H10C10.1326 9.35156 10.2597 9.29885 10.3535 9.20508C10.4473 9.11131 10.5 8.98417 10.5 8.85156ZM15.999 12.8516C15.999 13.8889 16.9279 14.8513 18.2285 14.8516H20.9365C20.9575 14.8497 20.9716 14.8456 20.9805 14.8418C20.9897 14.8378 20.9957 14.8332 20.999 14.8301V10.873C20.9958 10.8701 20.9902 10.866 20.9814 10.8623C20.9721 10.8583 20.9566 10.854 20.9326 10.8525L18.2305 10.8516C16.9285 10.8516 15.999 11.8141 15.999 12.8516ZM3 12.8506C3 14.7647 3.00245 16.0999 3.1377 17.1074C3.26895 18.0844 3.51003 18.6028 3.87891 18.9717C4.24776 19.3405 4.76612 19.5816 5.74414 19.7129C6.75164 19.8481 8.08593 19.8506 10 19.8506H13C14.9141 19.8506 16.2493 19.8481 17.2568 19.7129C18.2338 19.5816 18.7522 19.3406 19.1211 18.9717L19.2764 18.7988C19.5895 18.4035 19.7843 17.8391 19.8906 16.8516H18.2305C15.9662 16.8516 13.999 15.1297 13.999 12.8516C13.999 10.5736 15.9654 8.85181 18.2285 8.85156H19.8896C19.7833 7.86405 19.5886 7.29888 19.2754 6.90332L19.1201 6.73047C18.7513 6.36161 18.2329 6.12052 17.2549 5.98926C16.2484 5.85402 14.9131 5.85156 12.999 5.85156H9.99902C8.08497 5.85156 6.75071 5.854 5.74219 5.98926C4.76518 6.12051 4.24681 6.36159 3.87793 6.73047C3.50918 7.09922 3.26898 7.61745 3.1377 8.59473C3.00245 9.60222 3 10.9365 3 12.8506ZM23 14.7842C23 14.8425 22.9998 14.9165 22.9951 14.9863C22.9438 15.7132 22.5063 16.2935 21.9219 16.6025C21.8056 18.1569 21.4973 19.4255 20.5361 20.3877C19.733 21.1898 18.722 21.5346 17.5225 21.6963C16.3621 21.852 14.887 21.8516 13.0557 21.8516H9.94434C8.11298 21.8516 6.63695 21.852 5.47754 21.6963C4.27798 21.5346 3.26704 21.1898 2.46387 20.3877C1.66177 19.5845 1.317 18.5736 1.15527 17.374C0.999536 16.2136 1 14.7386 1 12.9072V12.7959C1 10.9645 0.999531 9.48852 1.15527 8.3291C1.317 7.12954 1.66177 6.1186 2.46387 5.31543C3.26704 4.51333 4.27798 4.16856 5.47754 4.00684C6.63793 3.8511 8.11296 3.85156 9.94434 3.85156H13.0557C14.887 3.85156 16.363 3.85109 17.5225 4.00684C18.6472 4.15847 19.6056 4.47133 20.3828 5.1709L20.5361 5.31543L20.7139 5.50586C21.536 6.44244 21.813 7.64548 21.9219 9.09961C22.5057 9.40717 22.9427 9.98597 22.9941 10.7119C23.0001 10.7849 23 10.8609 23 10.9189V14.7842ZM11 8.85156C11 9.11678 10.8946 9.37106 10.707 9.55859C10.5195 9.74613 10.2652 9.85156 10 9.85156H6C5.73478 9.85156 5.4805 9.74613 5.29297 9.55859C5.10543 9.37106 5 9.11678 5 8.85156C5 8.58635 5.10543 8.33207 5.29297 8.14453C5.4805 7.957 5.73478 7.85156 6 7.85156H10C10.2652 7.85156 10.5195 7.957 10.707 8.14453C10.8946 8.33207 11 8.58635 11 8.85156Z" fill="#EA4A35"/>
</svg>
