<svg width="24" height="25" viewBox="0 0 24 25" fill="none" xmlns="http://www.w3.org/2000/svg">
<path d="M19.1973 2.25361C19.4269 2.1716 19.6817 2.18625 19.9024 2.29658L21 2.8454L22.0977 2.29658C22.3766 2.15715 22.7074 2.17187 22.9727 2.33564C23.2381 2.49962 23.4004 2.78932 23.4004 3.10126V13.6013H21.5997V4.55732L21.4034 4.65595C21.15 4.78267 20.8511 4.78261 20.5977 4.65595L19.4981 4.10615L18.3868 4.6579C18.1338 4.7833 17.8365 4.78236 17.584 4.65595L16.4903 4.1081L15.4043 4.65497C15.1496 4.78311 14.8494 4.78335 14.5948 4.65497L13.5098 4.10712L12.3955 4.6579C12.1428 4.78274 11.8459 4.78223 11.5938 4.65595L10.4991 4.10712L9.40239 4.65595C9.14901 4.78264 8.85107 4.78264 8.5977 4.65595L8.40043 4.55732V16.6013H6.59965V3.10126C6.59965 2.78947 6.76127 2.49966 7.02641 2.33564C7.29174 2.17165 7.6234 2.15708 7.90239 2.29658L9.00004 2.8454L10.0977 2.29658L10.1944 2.25458C10.4249 2.17134 10.6815 2.18544 10.9034 2.29658L12 2.84638L13.1163 2.29462L13.2129 2.25361C13.4433 2.17161 13.6989 2.18607 13.92 2.29755L15.001 2.84443L16.086 2.29755L16.1827 2.25556C16.4137 2.17152 16.6711 2.18506 16.8936 2.29658L17.9883 2.84638L19.1006 2.29462L19.1973 2.25361Z" fill="#EA4A35"/>
<path d="M14.0996 17.5017H2.40138C2.40765 18.9517 2.50792 19.9882 2.87892 20.6726C3.05212 20.9919 3.28405 21.2301 3.62013 21.3991C3.97067 21.5753 4.48471 21.7009 5.25001 21.7009H15.0772C14.4478 20.8898 14.0996 19.8888 14.0996 18.8513V17.5017ZM15.9004 18.8513C15.9004 19.6071 16.1999 20.3324 16.7344 20.8669C17.2689 21.4014 17.9942 21.7009 18.75 21.7009C19.5059 21.7009 20.2312 21.4014 20.7656 20.8669C21.3001 20.3324 21.5996 19.6071 21.5996 18.8513L21.5997 13.6013H23.4004L23.4004 18.8513C23.4004 20.0845 22.9101 21.2673 22.0381 22.1394C21.2205 22.9569 20.1298 23.4388 18.9805 23.4958L18.75 23.5017H5.25001C4.2986 23.5017 3.48507 23.3458 2.81056 23.0065C2.12191 22.66 1.63086 22.1478 1.29591 21.53C0.742295 20.5086 0.624269 19.2013 0.603529 17.905L0.599622 17.3513C0.598758 17.1357 0.641042 16.9219 0.722669 16.7224C0.805299 16.5204 0.926791 16.3366 1.08107 16.1823L1.20216 16.0729C1.32832 15.9696 1.46964 15.8859 1.62111 15.8239L1.7754 15.7692C1.92916 15.7236 2.08906 15.7002 2.25001 15.7009H15C15.4971 15.7009 15.9004 16.1042 15.9004 16.6013V18.8513Z" fill="#EA4A35"/>
<path d="M19.5 10.5017C19.9695 10.5017 20.3497 10.8818 20.3497 11.3513C20.3497 11.8207 19.9695 12.2009 19.5 12.2009H13.5C13.0306 12.2009 12.6504 11.8207 12.6504 11.3513C12.6504 10.8818 13.0306 10.5017 13.5 10.5017H19.5ZM19.5 6.75165C19.9695 6.75165 20.3497 7.13182 20.3497 7.60126C20.3497 8.07071 19.9695 8.45087 19.5 8.45087H10.5C10.0306 8.45087 9.65043 8.07071 9.65043 7.60126C9.65043 7.13182 10.0306 6.75165 10.5 6.75165H19.5Z" fill="#EA4A35"/>
</svg>
