<svg width="24" height="25" viewBox="0 0 24 25" fill="none" xmlns="http://www.w3.org/2000/svg">
<path fill-rule="evenodd" clip-rule="evenodd" d="M9.94387 3.60156H14.0559C15.8939 3.60156 17.3499 3.60156 18.4889 3.75456C19.6609 3.91256 20.6099 4.24456 21.3589 4.99256C22.1069 5.74156 22.4389 6.69056 22.5969 7.86256C22.6869 8.53556 22.7239 9.31856 22.7389 10.2256C22.7513 10.3016 22.7526 10.3791 22.7429 10.4556C22.7489 11.0209 22.7512 11.6342 22.7499 12.2956V12.4076C22.7499 14.2456 22.7499 15.7016 22.5969 16.8406C22.4389 18.0126 22.1069 18.9616 21.3589 19.7106C20.6099 20.4586 19.6609 20.7906 18.4889 20.9486C17.3489 21.1016 15.8939 21.1016 14.0559 21.1016H9.94387C8.10587 21.1016 6.64988 21.1016 5.51088 20.9486C4.33888 20.7906 3.38988 20.4586 2.64088 19.7106C1.89288 18.9616 1.56088 18.0126 1.40288 16.8406C1.24988 15.7006 1.24988 14.2456 1.24988 12.4076V12.2956C1.24854 11.6342 1.25088 11.0209 1.25688 10.4556C1.24679 10.3792 1.2478 10.3017 1.25988 10.2256C1.27588 9.31856 1.31288 8.53556 1.40288 7.86256C1.56088 6.69056 1.89288 5.74156 2.64088 4.99256C3.38988 4.24456 4.33888 3.91256 5.51088 3.75456C6.65088 3.60156 8.10587 3.60156 9.94387 3.60156ZM2.75188 11.1016C2.75054 11.4896 2.74988 11.9062 2.74988 12.3516C2.74988 14.2586 2.75188 15.6136 2.88988 16.6416C3.02488 17.6466 3.27887 18.2266 3.70187 18.6496C4.12488 19.0726 4.70488 19.3266 5.71088 19.4616C6.73887 19.5996 8.09287 19.6016 9.99987 19.6016H13.9999C15.9069 19.6016 17.2619 19.5996 18.2899 19.4616C19.2949 19.3266 19.8749 19.0726 20.2979 18.6496C20.7209 18.2266 20.9749 17.6466 21.1099 16.6406C21.2479 15.6126 21.2499 14.2586 21.2499 12.3516C21.2499 11.9062 21.2492 11.4896 21.2479 11.1016H2.75188ZM21.2239 9.60156H2.77588C2.79588 9.01456 2.82988 8.50756 2.88988 8.06156C3.02488 7.05656 3.27887 6.47656 3.70187 6.05356C4.12488 5.63056 4.70488 5.37656 5.71088 5.24156C6.73887 5.10356 8.09287 5.10156 9.99987 5.10156H13.9999C15.9069 5.10156 17.2619 5.10356 18.2899 5.24156C19.2949 5.37656 19.8749 5.63056 20.2979 6.05356C20.7209 6.47656 20.9749 7.05656 21.1099 8.06256C21.1699 8.50756 21.2039 9.01456 21.2239 9.60156ZM5.24988 16.3516C5.24988 16.1526 5.32889 15.9619 5.46954 15.8212C5.6102 15.6806 5.80096 15.6016 5.99988 15.6016H9.99987C10.1988 15.6016 10.3896 15.6806 10.5302 15.8212C10.6709 15.9619 10.7499 16.1526 10.7499 16.3516C10.7499 16.5505 10.6709 16.7412 10.5302 16.8819C10.3896 17.0225 10.1988 17.1016 9.99987 17.1016H5.99988C5.80096 17.1016 5.6102 17.0225 5.46954 16.8819C5.32889 16.7412 5.24988 16.5505 5.24988 16.3516ZM11.7499 16.3516C11.7499 16.1526 11.8289 15.9619 11.9695 15.8212C12.1102 15.6806 12.301 15.6016 12.4999 15.6016H13.9999C14.1988 15.6016 14.3896 15.6806 14.5302 15.8212C14.6709 15.9619 14.7499 16.1526 14.7499 16.3516C14.7499 16.5505 14.6709 16.7412 14.5302 16.8819C14.3896 17.0225 14.1988 17.1016 13.9999 17.1016H12.4999C12.301 17.1016 12.1102 17.0225 11.9695 16.8819C11.8289 16.7412 11.7499 16.5505 11.7499 16.3516Z" fill="#EA4A35"/>
<path d="M22.5504 12.2949C22.5518 11.6345 22.5486 11.0222 22.5426 10.458V10.4443L22.5446 10.4307C22.5519 10.3733 22.5509 10.3148 22.5416 10.2578L22.5397 10.2432L22.5387 10.2285C22.5237 9.32419 22.4874 8.55072 22.3991 7.88965L22.3327 7.46973C22.1576 6.51745 21.8341 5.75126 21.2174 5.13379C20.5119 4.42933 19.6122 4.10814 18.4625 3.95312C17.3399 3.80233 15.8995 3.80176 14.0563 3.80176H9.94398C8.10073 3.80176 6.6614 3.80233 5.53773 3.95312C4.38804 4.10812 3.48843 4.42937 2.78285 5.13379C2.07814 5.83944 1.75623 6.73972 1.60121 7.88965C1.51283 8.55086 1.47557 9.32484 1.45961 10.2295V10.2432L1.45766 10.2568C1.4486 10.3139 1.44814 10.3724 1.4557 10.4297L1.45668 10.4434V10.458C1.45069 11.0222 1.44851 11.6345 1.44984 12.2949V12.4072C1.44984 14.2503 1.45046 15.6899 1.60121 16.8135C1.75623 17.9634 2.07814 18.8637 2.78285 19.5693C3.48843 20.2738 4.38804 20.595 5.53773 20.75C6.66039 20.9008 8.1007 20.9014 9.94398 20.9014H14.0563C15.8995 20.9014 17.3389 20.9008 18.4625 20.75C19.6122 20.595 20.5119 20.2738 21.2174 19.5693C21.9221 18.8637 22.244 17.9634 22.3991 16.8135C22.5498 15.6909 22.5504 14.2503 22.5504 12.4072V12.2949ZM21.0485 11.3018H2.9518C2.95088 11.6319 2.94984 11.9818 2.94984 12.3516C2.94984 14.2642 2.95272 15.6036 3.08851 16.6152C3.2205 17.5975 3.46383 18.1282 3.8434 18.5078C4.22309 18.8875 4.75426 19.1317 5.73793 19.2637C6.74942 19.3994 8.0874 19.4014 9.99965 19.4014H13.9996C15.9122 19.4014 17.2517 19.3995 18.2633 19.2637C19.246 19.1317 19.7772 18.8875 20.1569 18.5078C20.5364 18.1282 20.7798 17.5975 20.9118 16.6143C21.0476 15.6027 21.0504 14.2642 21.0504 12.3516C21.0504 11.9818 21.0494 11.6319 21.0485 11.3018ZM10.5504 16.3516C10.5504 16.2058 10.4922 16.066 10.3893 15.9629C10.2861 15.8597 10.1455 15.8018 9.99965 15.8018H5.99965C5.85391 15.8019 5.71403 15.8598 5.61098 15.9629C5.50794 16.066 5.44984 16.2058 5.44984 16.3516C5.44984 16.4973 5.50794 16.6371 5.61098 16.7402C5.71403 16.8433 5.85391 16.9013 5.99965 16.9014H9.99965C10.1455 16.9014 10.2862 16.8434 10.3893 16.7402C10.4922 16.6371 10.5504 16.4973 10.5504 16.3516ZM14.5504 16.3516C14.5504 16.2058 14.4922 16.066 14.3893 15.9629C14.2861 15.8597 14.1455 15.8018 13.9996 15.8018H12.4996C12.3539 15.8019 12.214 15.8598 12.111 15.9629C12.0079 16.066 11.9498 16.2058 11.9498 16.3516C11.9498 16.4973 12.0079 16.6371 12.111 16.7402C12.214 16.8433 12.3539 16.9013 12.4996 16.9014H13.9996C14.1455 16.9014 14.2862 16.8434 14.3893 16.7402C14.4922 16.6371 14.5504 16.4973 14.5504 16.3516ZM13.9996 4.90137C15.901 4.90137 17.2726 4.90277 18.317 5.04297C19.344 5.18096 19.9729 5.44599 20.4391 5.91211C20.9054 6.37841 21.1702 7.0078 21.3082 8.03613C21.3695 8.49042 21.4034 9.00474 21.4235 9.59473L21.4313 9.80176H2.56898L2.57582 9.59473C2.59592 9.00468 2.6308 8.49042 2.69203 8.03516C2.83001 7.00794 3.09402 6.37838 3.56019 5.91211C4.02648 5.44583 4.65597 5.18097 5.68422 5.04297C6.72855 4.90278 8.0985 4.90137 9.99965 4.90137H13.9996ZM9.99965 5.30176C8.0874 5.30176 6.74942 5.30371 5.73793 5.43945C4.75426 5.57146 4.22309 5.81562 3.8434 6.19531C3.46383 6.57497 3.2205 7.1056 3.08851 8.08789C3.03683 8.47204 3.00556 8.9053 2.985 9.40137H21.0153C20.9947 8.9053 20.9634 8.47211 20.9118 8.08887C20.7798 7.10565 20.5364 6.57495 20.1569 6.19531C19.7772 5.8156 19.246 5.57145 18.2633 5.43945C17.2517 5.30367 15.9122 5.30176 13.9996 5.30176H9.99965ZM10.9498 16.3516C10.9498 16.6035 10.8497 16.8453 10.6715 17.0234C10.4934 17.2015 10.2515 17.3018 9.99965 17.3018H5.99965C5.74782 17.3017 5.50585 17.2015 5.32777 17.0234C5.14973 16.8453 5.05043 16.6034 5.05043 16.3516C5.05043 16.0997 5.14973 15.8578 5.32777 15.6797C5.50585 15.5016 5.74782 15.4015 5.99965 15.4014H9.99965C10.2515 15.4014 10.4934 15.5016 10.6715 15.6797C10.8497 15.8578 10.9498 16.0996 10.9498 16.3516ZM14.9498 16.3516C14.9498 16.6035 14.8497 16.8453 14.6715 17.0234C14.4934 17.2015 14.2515 17.3018 13.9996 17.3018H12.4996C12.2478 17.3017 12.0058 17.2015 11.8278 17.0234C11.6497 16.8453 11.5504 16.6034 11.5504 16.3516C11.5504 16.0997 11.6497 15.8578 11.8278 15.6797C12.0058 15.5016 12.2478 15.4015 12.4996 15.4014H13.9996C14.2515 15.4014 14.4934 15.5016 14.6715 15.6797C14.8497 15.8578 14.9498 16.0996 14.9498 16.3516ZM21.4498 12.3516C21.4498 14.2528 21.4484 15.6226 21.3082 16.667C21.1702 17.6953 20.9054 18.3247 20.4391 18.791C19.9729 19.2571 19.344 19.5222 18.317 19.6602C17.2726 19.8004 15.901 19.8018 13.9996 19.8018H9.99965C8.0985 19.8018 6.72855 19.8004 5.68422 19.6602C4.65597 19.5222 4.02648 19.2573 3.56019 18.791C3.09402 18.3247 2.83001 17.6952 2.69203 16.668C2.55185 15.6236 2.55043 14.2528 2.55043 12.3516C2.55043 11.906 2.55105 11.4888 2.55238 11.1006V10.9014H21.4469L21.4479 11.1006C21.4492 11.4888 21.4498 11.906 21.4498 12.3516ZM22.9498 12.4072C22.9498 14.2399 22.9507 15.7119 22.7955 16.8672C22.6346 18.0612 22.2918 19.0593 21.5006 19.8516V19.8525C20.7083 20.6438 19.7093 20.9855 18.5153 21.1465C17.3591 21.3016 15.8887 21.3018 14.0563 21.3018H9.94398C8.11131 21.3018 6.63935 21.3017 5.48402 21.1465C4.29019 20.9855 3.29189 20.6436 2.49965 19.8525V19.8516C1.80728 19.1582 1.45825 18.3075 1.27406 17.3057L1.20473 16.8672C1.04954 15.7109 1.05043 14.2399 1.05043 12.4072V12.2959C1.04909 11.6339 1.05125 11.0194 1.05726 10.4531C1.04912 10.374 1.05041 10.2946 1.06117 10.2158C1.07727 9.30935 1.11337 8.51904 1.20473 7.83594L1.27406 7.39746C1.45825 6.39559 1.80728 5.5449 2.49965 4.85156V4.85059C3.29189 4.05951 4.29019 3.71762 5.48402 3.55664C6.64033 3.40145 8.1113 3.40137 9.94398 3.40137H14.0563C15.8887 3.40137 17.36 3.4015 18.5153 3.55664C19.7093 3.71761 20.7083 4.05936 21.5006 4.85059V4.85156C22.1929 5.54489 22.542 6.39563 22.7262 7.39746L22.7955 7.83594L22.8541 8.37012C22.9039 8.92421 22.9278 9.54006 22.9391 10.2217C22.9494 10.2985 22.9507 10.376 22.943 10.4531L22.9498 12.2959V12.4072Z" fill="#EA4A35"/>
</svg>
