<svg width="24" height="24" viewBox="0 0 24 24" fill="none" xmlns="http://www.w3.org/2000/svg">
<path d="M4.12222 10.1825V19.1857C4.12222 19.3582 4.19425 19.5169 4.3383 19.6617C4.48235 19.8065 4.64103 19.8785 4.81434 19.8778H19.1857C19.3582 19.8778 19.5169 19.8057 19.6617 19.6617C19.8065 19.5176 19.8785 19.359 19.8778 19.1857V10.1825H4.12222ZM4.12222 9.05709H19.8778V4.81434C19.8778 4.64178 19.8057 4.4831 19.6617 4.3383C19.5176 4.1935 19.3586 4.12147 19.1845 4.12222H4.81547C4.64216 4.12222 4.4831 4.19425 4.3383 4.3383C4.1935 4.48235 4.12147 4.64141 4.12222 4.81547V9.05709ZM17.627 7.23957C17.8738 7.23957 18.0798 7.15667 18.2448 6.99086C18.4099 6.82505 18.4924 6.6191 18.4924 6.37302C18.4924 6.12693 18.4099 5.92098 18.2448 5.75517C18.0798 5.58936 17.8738 5.50684 17.627 5.50759C17.3801 5.50834 17.1742 5.59087 17.0091 5.75517C16.8441 5.91948 16.7616 6.12543 16.7616 6.37302C16.7616 6.6206 16.8441 6.82655 17.0091 6.99086C17.1742 7.15517 17.3801 7.23882 17.627 7.23957ZM4.81547 21.0032C4.29703 21.0032 3.86451 20.8299 3.51788 20.4832C3.17126 20.1366 2.99758 19.7037 2.99683 19.1845V4.81547C2.99683 4.29703 3.17051 3.86451 3.51788 3.51788C3.86526 3.17126 4.29778 2.99758 4.81547 2.99683H19.1857C19.7033 2.99683 20.1359 3.17051 20.4832 3.51788C20.8306 3.86526 21.0039 4.29778 21.0032 4.81547V19.1857C21.0032 19.7033 20.8299 20.1359 20.4832 20.4832C20.1366 20.8306 19.7037 21.0039 19.1845 21.0032H4.81547Z" fill="#EA4A35"/>
<path d="M10.8004 17.6911C11.1253 18.0235 11.5252 18.1896 12.0001 18.1896C12.475 18.1896 12.8749 18.0235 13.1998 17.6911C13.5254 17.3587 13.6882 16.9479 13.6882 16.4588C13.6875 16.0101 13.5539 15.5142 13.2876 14.971C13.0212 14.4278 12.5921 13.7837 12.0001 13.0387C11.4089 13.7687 10.9797 14.4091 10.7127 14.9597C10.4456 15.5104 10.312 16.0101 10.312 16.4588C10.312 16.9472 10.4748 17.358 10.8004 17.6911Z" fill="#EA4A35"/>
</svg>
