<svg width="20" height="20" viewBox="0 0 20 20" fill="none" xmlns="http://www.w3.org/2000/svg">
<path d="M19.2219 8.65771H18.4986V8.62044H10.4167V12.2124H15.4917C14.7513 14.3034 12.7618 15.8044 10.4167 15.8044C7.44118 15.8044 5.02873 13.3919 5.02873 10.4164C5.02873 7.44093 7.44118 5.02848 10.4167 5.02848C11.7901 5.02848 13.0397 5.54662 13.9911 6.39298L16.5311 3.85301C14.9273 2.35831 12.782 1.43652 10.4167 1.43652C5.45752 1.43652 1.43677 5.45727 1.43677 10.4164C1.43677 15.3756 5.45752 19.3963 10.4167 19.3963C15.3758 19.3963 19.3966 15.3756 19.3966 10.4164C19.3966 9.81432 19.3346 9.22659 19.2219 8.65771Z" fill="#FFC107"/>
<path d="M2.47215 6.23673L5.4225 8.40044C6.22081 6.42396 8.15418 5.02848 10.4167 5.02848C11.7901 5.02848 13.0397 5.54662 13.9911 6.39298L16.5311 3.85301C14.9273 2.35831 12.782 1.43652 10.4167 1.43652C6.96749 1.43652 3.97628 3.38381 2.47215 6.23673Z" fill="#FF3D00"/>
<path d="M10.4167 19.3963C12.7362 19.3963 14.8438 18.5087 16.4372 17.0651L13.658 14.7133C12.7262 15.4223 11.5875 15.8056 10.4167 15.8044C8.081 15.8044 6.09778 14.315 5.35066 12.2366L2.42231 14.4928C3.90849 17.401 6.92663 19.3963 10.4167 19.3963Z" fill="#4CAF50"/>
<path d="M19.2219 8.65771H18.4986V8.62044H10.4167V12.2124H15.4917C15.1375 13.2076 14.4995 14.0772 13.6566 14.7138L13.658 14.7133L16.4372 17.0651C16.2406 17.2438 19.3966 14.9064 19.3966 10.4164C19.3966 9.81432 19.3346 9.22659 19.2219 8.65771Z" fill="#1976D2"/>
</svg>
