<svg width="24" height="24" viewBox="0 0 24 24" fill="none" xmlns="http://www.w3.org/2000/svg">
<path d="M21.1683 5.12378H2.83165C2.62902 5.12378 2.43469 5.20427 2.2914 5.34756C2.14812 5.49084 2.06763 5.68517 2.06763 5.88781V18.1122C2.06763 18.3149 2.14812 18.5092 2.2914 18.6525C2.43469 18.7958 2.62902 18.8762 2.83165 18.8762H21.1683C21.3709 18.8762 21.5652 18.7958 21.7085 18.6525C21.8518 18.5092 21.9323 18.3149 21.9323 18.1122V5.88781C21.9323 5.68517 21.8518 5.49084 21.7085 5.34756C21.5652 5.20427 21.3709 5.12378 21.1683 5.12378Z" stroke="#3DC812" stroke-width="1.5" stroke-linecap="round" stroke-linejoin="round"/>
<path d="M18.1122 8.94396H18.8762M18.1122 12.0001H18.8762M14.2921 8.17993H5.88781C5.68517 8.17993 5.49084 8.26043 5.34756 8.40371C5.20427 8.54699 5.12378 8.74133 5.12378 8.94396V15.0562C5.12378 15.2588 5.20427 15.4531 5.34756 15.5964C5.49084 15.7397 5.68517 15.8202 5.88781 15.8202H14.2921C14.4947 15.8202 14.6891 15.7397 14.8323 15.5964C14.9756 15.4531 15.0561 15.2588 15.0561 15.0562V8.94396C15.0561 8.74133 14.9756 8.54699 14.8323 8.40371C14.6891 8.26043 14.4947 8.17993 14.2921 8.17993Z" stroke="#3DC812" stroke-width="1.3" stroke-linecap="round" stroke-linejoin="round"/>
</svg>
