<svg width="24" height="24" viewBox="0 0 24 24" fill="none" xmlns="http://www.w3.org/2000/svg">
<path d="M11.5597 20.2855C11.6985 20.2855 11.8408 20.2543 11.9866 20.192C12.1324 20.1297 12.2503 20.0536 12.3402 19.9637L20.6185 11.6844C20.8853 11.4175 21.0913 11.145 21.2365 10.8668C21.3809 10.5872 21.4531 10.2806 21.4531 9.94721C21.4531 9.60954 21.3809 9.28178 21.2365 8.96393C21.0913 8.64537 20.8853 8.35513 20.6185 8.0932L16.6365 4.11123C16.3739 3.84434 16.1038 3.64861 15.8263 3.52402C15.5495 3.39943 15.2423 3.33713 14.9046 3.33713C14.5712 3.33713 14.2615 3.39943 13.9755 3.52402C13.6895 3.64861 13.4201 3.84399 13.1674 4.11016L12.2414 5.03611L14.2059 7.00586C14.4168 7.21327 14.5744 7.44901 14.6784 7.71306C14.7818 7.97711 14.8334 8.24505 14.8334 8.51688C14.8334 9.06976 14.6526 9.52707 14.2908 9.88881C13.9291 10.2505 13.4721 10.4311 12.92 10.4304C12.6474 10.4304 12.3816 10.3889 12.1225 10.3061C11.8634 10.2233 11.6302 10.0782 11.4228 9.87076L9.86075 8.31619C9.73829 8.19373 9.58184 8.13249 9.39141 8.13249C9.20028 8.13249 9.04348 8.19373 8.92101 8.31619L4.8063 12.4309C4.6994 12.5385 4.61906 12.6606 4.56526 12.7972C4.51146 12.9339 4.48456 13.0719 4.48456 13.2114C4.48456 13.462 4.5649 13.6683 4.7256 13.8304C4.88558 13.9933 5.09088 14.0747 5.34148 14.0747C5.48023 14.0747 5.62252 14.0435 5.76834 13.9812C5.91417 13.9182 6.03204 13.8418 6.12194 13.7519L9.11108 10.7627C9.21019 10.6636 9.33124 10.6095 9.47424 10.6003C9.61723 10.5911 9.74678 10.6452 9.86288 10.7627C9.97614 10.876 10.0328 11.0013 10.0328 11.1386C10.0328 11.276 9.97614 11.4013 9.86288 11.5145L6.87905 14.5037C6.77145 14.6113 6.69075 14.7334 6.63695 14.87C6.58385 15.0073 6.55731 15.1454 6.55731 15.2841C6.55731 15.5213 6.64084 15.7234 6.80791 15.8904C6.97497 16.0575 7.17708 16.1414 7.41423 16.1421C7.55298 16.1421 7.69527 16.1106 7.8411 16.0476C7.98692 15.9846 8.10479 15.9085 8.19469 15.8193L11.4291 12.5912C11.5282 12.4914 11.6489 12.4369 11.7912 12.4277C11.9335 12.4185 12.0631 12.4727 12.1799 12.5902C12.2931 12.7034 12.3498 12.8287 12.3498 12.9661C12.3498 13.1034 12.2931 13.2287 12.1799 13.342L8.9518 16.5764C8.85836 16.6663 8.7812 16.7842 8.72032 16.93C8.65944 17.0758 8.629 17.2181 8.629 17.3569C8.629 17.5933 8.71288 17.7951 8.88066 17.9621C9.04843 18.1306 9.25054 18.2149 9.48698 18.2149C9.62573 18.2149 9.76377 18.188 9.9011 18.1342C10.0384 18.0804 10.1602 17.9997 10.2664 17.892L13.5019 14.664C13.601 14.5642 13.7217 14.5097 13.864 14.5005C14.0063 14.492 14.1362 14.5461 14.2537 14.6629C14.3662 14.7762 14.4225 14.9015 14.4225 15.0388C14.4225 15.1762 14.3659 15.3015 14.2526 15.4147L11.0192 18.6481C10.9124 18.7557 10.832 18.8849 10.7782 19.0357C10.7244 19.1865 10.6975 19.3241 10.6975 19.4487C10.6975 19.6993 10.7856 19.9014 10.9619 20.0551C11.1382 20.2087 11.3378 20.2855 11.5608 20.2855M11.5544 21.3473C11.0086 21.3473 10.5414 21.1477 10.1528 20.7485C9.76412 20.3492 9.59352 19.8558 9.64095 19.2682C9.03923 19.2753 8.53838 19.0958 8.13842 18.7299C7.73845 18.3639 7.54838 17.8528 7.5682 17.1965C6.91268 17.2036 6.3959 17.016 6.01788 16.6337C5.63986 16.2515 5.46784 15.7482 5.50182 15.1238C4.91142 15.1309 4.4173 14.9645 4.01946 14.6247C3.62232 14.2863 3.42376 13.8149 3.42376 13.2103C3.42376 12.9378 3.4765 12.6652 3.58197 12.3927C3.68745 12.1194 3.84319 11.8794 4.04919 11.6727L8.18514 7.53679C8.51078 7.21186 8.91216 7.04939 9.38929 7.04939C9.86642 7.04939 10.2678 7.21221 10.5934 7.53785L12.1342 9.07861C12.2241 9.17276 12.3352 9.25028 12.4676 9.31116C12.6 9.37204 12.749 9.40212 12.9147 9.40141C13.1419 9.40141 13.3426 9.32213 13.5167 9.16356C13.6909 9.00499 13.7783 8.79828 13.779 8.54343C13.779 8.37778 13.7486 8.22912 13.6877 8.09745C13.6268 7.96507 13.5497 7.85393 13.4562 7.76402L9.80341 4.11123C9.54007 3.84434 9.26647 3.64861 8.98259 3.52402C8.69872 3.39943 8.38795 3.33713 8.05028 3.33713C7.71686 3.33713 7.41387 3.39943 7.14133 3.52402C6.86949 3.64861 6.60013 3.84434 6.33325 4.11123L3.09989 7.3499C2.72895 7.72014 2.49038 8.17213 2.3842 8.70589C2.27801 9.23966 2.3265 9.74935 2.52967 10.235C2.56931 10.3723 2.55162 10.505 2.47658 10.6332C2.40154 10.7613 2.29535 10.8427 2.15802 10.8774C2.02069 10.9121 1.88441 10.8937 1.7492 10.8222C1.61399 10.7507 1.52904 10.6456 1.49436 10.5068C1.2657 9.82014 1.2158 9.12675 1.34463 8.42663C1.47347 7.72651 1.80619 7.10815 2.34278 6.57156L5.55385 3.35943C5.92408 2.99273 6.31591 2.72019 6.72933 2.5418C7.14275 2.36411 7.58979 2.27527 8.07046 2.27527C8.55113 2.27527 8.99428 2.36446 9.39991 2.54286C9.80625 2.72054 10.1928 2.99273 10.5595 3.35943L11.4833 4.28431L12.4092 3.35943C12.7795 2.99273 13.1677 2.72019 13.5741 2.5418C13.9804 2.36411 14.4239 2.27527 14.9046 2.27527C15.3853 2.27527 15.8323 2.36446 16.2457 2.54286C16.6584 2.72054 17.0478 2.99273 17.4138 3.35943L21.3703 7.31486C21.7362 7.68085 22.0187 8.09179 22.2176 8.54768C22.4165 9.00357 22.5157 9.47185 22.5149 9.95252C22.5149 10.4339 22.4158 10.8774 22.2176 11.283C22.0194 11.6887 21.737 12.0752 21.3703 12.4426L13.0909 20.7145C12.8708 20.9353 12.6308 21.096 12.371 21.1966C12.1119 21.2971 11.8404 21.3473 11.5544 21.3473Z" fill="#EA4A35"/>
<path d="M14.9048 2C15.4203 2.00003 15.905 2.09584 16.355 2.29004C16.8043 2.48346 17.2216 2.77724 17.6085 3.16486L21.565 7.12067C21.9541 7.5099 22.2568 7.94936 22.47 8.43793C22.6834 8.92719 22.791 9.43282 22.7902 9.95258L22.7849 10.1459C22.7613 10.5934 22.6551 11.0135 22.4646 11.4034C22.2513 11.84 21.9499 12.2511 21.565 12.6368L13.2854 20.9089C13.0719 21.1231 12.8372 21.2903 12.5811 21.4064L12.4704 21.4528C12.1788 21.5659 11.8737 21.6226 11.5546 21.6226C10.933 21.6226 10.3952 21.3915 9.95601 20.9405C9.57426 20.5483 9.37658 20.0735 9.35982 19.5319C8.81686 19.4866 8.34315 19.2904 7.9526 18.933C7.54265 18.5579 7.33073 18.0585 7.29665 17.4627C6.70511 17.4203 6.20584 17.2148 5.82229 16.8269C5.44179 16.4421 5.24727 15.9555 5.22475 15.3881C4.69438 15.3463 4.22907 15.165 3.84102 14.8336C3.37271 14.4344 3.14882 13.8809 3.14882 13.2101C3.14885 12.9014 3.20865 12.5955 3.3254 12.2937C3.44458 11.9849 3.62138 11.7125 3.85445 11.4786L7.99087 7.34222L8.13723 7.20929C8.48923 6.91939 8.91068 6.77423 9.38936 6.77423C9.93646 6.77425 10.4086 6.96433 10.7879 7.34357L12.3287 8.8844L12.3334 8.88843C12.3966 8.95466 12.4779 9.01355 12.5825 9.06165C12.6738 9.10361 12.7824 9.12666 12.9135 9.1261H12.9148C13.0708 9.12607 13.2062 9.07454 13.3317 8.96027C13.4436 8.85835 13.5036 8.72774 13.5043 8.54333L13.4996 8.44934C13.4909 8.35904 13.4693 8.28109 13.4378 8.21301C13.3895 8.10801 13.3311 8.02523 13.2653 7.96191L9.60756 4.3042C9.36381 4.0572 9.11836 3.88382 8.8724 3.77582C8.62637 3.66784 8.353 3.612 8.04995 3.612C7.78888 3.61204 7.55473 3.65494 7.34432 3.73688L7.2557 3.7738C7.07919 3.85472 6.89849 3.97311 6.71389 4.13232L6.52791 4.30554L3.29452 7.54431C2.9637 7.87451 2.75 8.27706 2.65401 8.75952C2.57011 9.18128 2.59325 9.58155 2.72182 9.96533L2.78359 10.1292L2.78963 10.1432L2.79366 10.1587C2.8551 10.3715 2.82522 10.582 2.71377 10.7723C2.60352 10.9605 2.43806 11.0906 2.22567 11.1443C2.01687 11.197 1.81088 11.1656 1.62075 11.0651C1.42622 10.9622 1.28876 10.8009 1.23134 10.5877C0.989995 9.85974 0.937237 9.12131 1.07424 8.37683C1.1964 7.71306 1.48794 7.11854 1.94301 6.59631L2.14846 6.37677L5.35903 3.16486L5.36037 3.16418C5.7512 2.77709 6.1711 2.48332 6.62057 2.28937L6.7911 2.22089C7.19228 2.07307 7.6198 2 8.07076 2C8.58576 2.00004 9.06653 2.09606 9.50954 2.29071C9.95208 2.48422 10.3668 2.77804 10.7536 3.16486L11.4834 3.89465L12.2146 3.16486L12.2159 3.16418C12.606 2.77783 13.0219 2.48412 13.464 2.29004C13.9079 2.09593 14.3894 2 14.9048 2ZM14.5584 8.51715C14.5584 8.28113 14.5134 8.047 14.4221 7.81354C14.3327 7.58726 14.1976 7.38321 14.0132 7.2019L14.0112 7.19989L12.0467 5.23004L11.8527 5.03601L12.9732 3.91547C13.2455 3.62991 13.5424 3.41238 13.8655 3.27161C14.1885 3.1309 14.5362 3.06213 14.9048 3.06213C15.2769 3.06216 15.6234 3.1307 15.9394 3.27295C16.2537 3.4141 16.5503 3.63188 16.831 3.91681L20.811 7.89679C21.1003 8.18074 21.3264 8.49883 21.4864 8.85016C21.6465 9.20247 21.7281 9.56898 21.7281 9.9472C21.7281 10.3219 21.6468 10.6723 21.481 10.9932C21.3207 11.3006 21.0958 11.596 20.813 11.8788L12.5348 20.1583C12.4148 20.2783 12.2648 20.3722 12.0944 20.445C11.9196 20.5196 11.7411 20.5597 11.5606 20.5598C11.2678 20.5598 11.0048 20.4573 10.7811 20.2624C10.5403 20.0525 10.4226 19.7723 10.4226 19.4487C10.4226 19.2851 10.4578 19.1155 10.5193 18.9431C10.5859 18.7565 10.6872 18.5922 10.8241 18.4543L14.0582 15.2203C14.1291 15.1494 14.1474 15.0912 14.1475 15.039C14.1475 14.9864 14.1291 14.9281 14.0595 14.8577C13.988 14.7868 13.9318 14.7722 13.8809 14.7751C13.805 14.7802 13.7479 14.8064 13.697 14.8577L10.4609 18.0864C10.3287 18.2201 10.1751 18.3219 10.0017 18.3899C9.83441 18.4554 9.66191 18.4899 9.48672 18.4899C9.17679 18.4899 8.90474 18.3762 8.68575 18.1562C8.46698 17.9379 8.35409 17.6658 8.35409 17.3566C8.35412 17.1769 8.39396 16.9989 8.46688 16.8242C8.53913 16.6512 8.63522 16.4994 8.76095 16.3784L11.9849 13.1477C12.0559 13.0768 12.0749 13.018 12.0749 12.9658C12.0748 12.9136 12.0564 12.8553 11.9856 12.7845C11.9148 12.7133 11.8589 12.6987 11.809 12.7019C11.7327 12.7068 11.6755 12.7337 11.6244 12.7852L11.6231 12.7858L8.38833 16.0145C8.26871 16.1332 8.11954 16.2266 7.94991 16.2999C7.77466 16.3756 7.59541 16.4174 7.41414 16.4174C7.10465 16.4164 6.83183 16.3037 6.61318 16.085C6.39437 15.8662 6.28219 15.5938 6.28219 15.2841C6.28219 15.1095 6.31573 14.938 6.38021 14.7711L6.38088 14.7691C6.44899 14.5962 6.55113 14.4425 6.68435 14.3092L9.66799 11.3202C9.73877 11.2494 9.75789 11.1911 9.75796 11.1389C9.75796 11.0867 9.7396 11.0279 9.66866 10.957L9.66732 10.9563C9.59781 10.8859 9.54298 10.8712 9.49209 10.8744C9.41417 10.8794 9.35613 10.9063 9.30544 10.957L6.31643 13.946C6.19671 14.0657 6.04735 14.1599 5.87734 14.2333C5.70225 14.3081 5.52236 14.3495 5.34157 14.3495C5.02516 14.3495 4.74621 14.244 4.5292 14.0232C4.31313 13.8045 4.20964 13.5261 4.20962 13.2115C4.20962 13.0357 4.24389 12.8635 4.30965 12.6965C4.3776 12.524 4.47881 12.3705 4.6111 12.2373L8.72671 8.1217C8.90631 7.94215 9.13566 7.85719 9.39138 7.85718C9.64648 7.85718 9.87538 7.94203 10.0547 8.12103L11.617 9.67596C11.7959 9.85483 11.9924 9.97545 12.2065 10.0439C12.4384 10.118 12.6761 10.1553 12.9202 10.1553C13.4057 10.156 13.7907 9.99981 14.0965 9.69409C14.402 9.38843 14.5583 9.00338 14.5584 8.51715ZM3.69869 13.2101C3.69869 13.7482 3.8719 14.1377 4.19753 14.4153C4.53817 14.7062 4.96574 14.8554 5.49868 14.849L5.79207 14.845L5.77663 15.139C5.74619 15.6997 5.89936 16.1223 6.21371 16.4402C6.5282 16.7582 6.96672 16.928 7.56521 16.9216L7.85189 16.9182L7.84316 17.2049C7.82521 17.7994 7.99548 18.2263 8.32387 18.5269C8.66648 18.8404 9.09756 18.9998 9.63778 18.9935L9.93923 18.9894L9.91506 19.2902C9.87359 19.8039 10.0204 20.2177 10.3501 20.5565C10.6882 20.9037 11.0848 21.0721 11.5546 21.0721C11.8074 21.0721 12.0451 21.0284 12.2716 20.9405C12.4915 20.8554 12.6997 20.7171 12.896 20.5202L21.1756 12.248C21.5239 11.899 21.7874 11.537 21.9705 11.1624C22.1491 10.7969 22.2397 10.3949 22.2397 9.95258C22.2403 9.5113 22.15 9.07972 21.9658 8.65747C21.7812 8.2344 21.5182 7.85206 21.1756 7.5094L17.2191 3.55359C16.9171 3.25104 16.603 3.02121 16.2771 2.86005L16.1368 2.79559C15.7601 2.63306 15.3505 2.55056 14.9048 2.55054C14.4591 2.55054 14.0535 2.6325 13.6849 2.79358C13.3143 2.95627 12.953 3.20791 12.6026 3.55493L11.4827 4.67346L11.2887 4.47876L10.3649 3.55359C10.0186 3.2073 9.6599 2.95672 9.29 2.79492C8.92221 2.63317 8.51646 2.55057 8.07076 2.55054C7.68073 2.55054 7.31797 2.61304 6.9811 2.73718L6.8381 2.79425C6.46078 2.95709 6.09669 3.20868 5.74709 3.55493L2.53719 6.76617C2.03739 7.26601 1.73347 7.83473 1.61538 8.4762C1.49509 9.12986 1.54081 9.77649 1.75503 10.4199L1.75838 10.4299L1.76107 10.44C1.77538 10.4973 1.80631 10.5411 1.87789 10.579C1.95815 10.6214 2.02487 10.6272 2.09072 10.6105C2.1527 10.5949 2.19935 10.5622 2.2391 10.4944C2.2771 10.4295 2.28212 10.3751 2.26528 10.3145C2.04951 9.78452 1.99965 9.22798 2.11422 8.6521C2.23057 8.06731 2.49433 7.56574 2.90511 7.15558L6.13851 3.91681L6.24593 3.81342C6.49708 3.57953 6.75711 3.39789 7.02675 3.27429C7.33894 3.13158 7.68167 3.06218 8.04995 3.06213C8.42224 3.06213 8.77156 3.13107 9.09328 3.27228C9.41434 3.41322 9.71529 3.63095 9.99764 3.91681L13.6466 7.5658C13.7675 7.6821 13.8632 7.82261 13.9367 7.98206C14.0165 8.15467 14.0541 8.34353 14.0542 8.54333C14.0533 8.86823 13.9379 9.15203 13.7017 9.36713C13.4792 9.56963 13.2135 9.67577 12.9155 9.67596C12.7155 9.67678 12.5262 9.64082 12.3529 9.56116C12.1948 9.48845 12.0556 9.39297 11.94 9.27313L10.3991 7.7323C10.1271 7.46029 9.79646 7.32411 9.38936 7.3241C8.98205 7.3241 8.65158 7.46025 8.3796 7.73163L4.24386 11.8674C4.10978 12.002 4.00049 12.1522 3.91555 12.3192L3.83834 12.4918C3.74424 12.7349 3.69871 12.974 3.69869 13.2101ZM15.1082 8.51715C15.1082 9.13635 14.9029 9.66582 14.4852 10.0835C14.0676 10.501 13.5387 10.7059 12.9202 10.7052C12.6194 10.7052 12.3247 10.6597 12.0387 10.5682C11.7346 10.471 11.4642 10.3012 11.2283 10.0654L9.66665 8.51111C9.60117 8.44576 9.51667 8.40771 9.39138 8.40771C9.26497 8.40772 9.18073 8.44519 9.11544 8.51044L5.00051 12.6254C4.91953 12.7071 4.86075 12.7977 4.82125 12.8979C4.77941 13.0042 4.75948 13.1083 4.75948 13.2115C4.7595 13.3741 4.80286 13.4974 4.88369 13.5962L4.92061 13.6371L4.92196 13.6378C5.02489 13.7425 5.15689 13.7996 5.34157 13.7996C5.43794 13.7996 5.54306 13.7779 5.65914 13.7285C5.78076 13.6759 5.86762 13.6173 5.92769 13.5573L8.91671 10.5682C9.06419 10.4208 9.24851 10.3393 9.4565 10.3259C9.69099 10.3108 9.89499 10.4044 10.0574 10.5682L10.1124 10.628C10.235 10.7721 10.3078 10.9442 10.3078 11.1389C10.3077 11.3335 10.2349 11.5051 10.1124 11.6492L10.0574 11.7089L7.07375 14.6979C6.99193 14.7798 6.93262 14.8704 6.89315 14.9705C6.85178 15.0778 6.83206 15.1816 6.83205 15.2841C6.83205 15.4486 6.88731 15.581 7.00258 15.6963C7.11779 15.8114 7.24989 15.8655 7.41414 15.8661C7.51027 15.8661 7.61544 15.8452 7.73171 15.795C7.85372 15.7423 7.94075 15.6835 8.00094 15.6238L11.235 12.3964C11.3819 12.2489 11.5657 12.1668 11.7735 12.1534C12.0079 12.1382 12.2117 12.2324 12.3743 12.3958L12.4301 12.4555C12.5524 12.5995 12.6247 12.7713 12.6248 12.9658C12.6248 13.1604 12.5525 13.3326 12.4301 13.4767L12.3743 13.5364L9.14229 16.7745C9.08127 16.8333 9.02322 16.9173 8.97378 17.0357C8.92501 17.1525 8.90399 17.259 8.90395 17.3566C8.90395 17.4995 8.94595 17.6183 9.0342 17.7232L9.07448 17.7675L9.07583 17.7682C9.19221 17.885 9.32409 17.94 9.48672 17.9401C9.58902 17.9401 9.69351 17.9204 9.80092 17.8783C9.90147 17.8389 9.99101 17.7799 10.0708 17.699L10.0722 17.6977L13.3076 14.469C13.4545 14.3215 13.6383 14.2394 13.846 14.226H13.934C14.1032 14.2353 14.2548 14.3023 14.3845 14.4106L14.4476 14.4677L14.4489 14.469C14.6037 14.6247 14.6973 14.8172 14.6973 15.039C14.6973 15.2613 14.6024 15.4535 14.4469 15.609L11.2135 18.8424C11.137 18.9196 11.0778 19.0139 11.0369 19.1284C10.991 19.2574 10.9725 19.3632 10.9725 19.4487C10.9725 19.6261 11.0309 19.7502 11.1424 19.8475C11.271 19.9596 11.4072 20.0098 11.56 20.0099C11.6566 20.0099 11.7624 19.9892 11.8789 19.9395C11.9998 19.8878 12.0857 19.8292 12.1454 19.7696L20.4243 11.4901C20.6752 11.2391 20.8631 10.9884 20.9929 10.7394C21.1156 10.5015 21.1782 10.2389 21.1782 9.9472C21.1782 9.68733 21.1295 9.43366 21.0312 9.18451L20.9862 9.07776C20.856 8.79203 20.67 8.52941 20.4256 8.28955L20.4243 8.28754L16.4423 4.30554L16.4403 4.3042C16.1963 4.05633 15.9538 3.88293 15.7138 3.77515C15.4765 3.66836 15.2077 3.61203 14.9048 3.612C14.6065 3.612 14.334 3.66734 14.085 3.77582C13.8383 3.88334 13.5984 4.05542 13.3667 4.2995L13.362 4.30487L12.6301 5.03601L14.3986 6.80981L14.4852 6.89911C14.6521 7.0804 14.7863 7.28111 14.8867 7.50067L14.9343 7.61212C15.0497 7.90671 15.1082 8.20954 15.1082 8.51715Z" fill="#EA4A35"/>
</svg>
