<svg width="24" height="24" viewBox="0 0 24 24" fill="none" xmlns="http://www.w3.org/2000/svg">
<path d="M4.616 19C4.168 19 3.78667 18.8427 3.472 18.528C3.15733 18.2133 3 17.8323 3 17.385V13.8C3 13.6747 3.02867 13.552 3.086 13.432C3.14333 13.312 3.21867 13.2053 3.312 13.112L8 8.423V4H16V8.423L20.521 12.944C20.6663 13.0887 20.7823 13.2597 20.869 13.457C20.9557 13.6543 20.9993 13.8603 21 14.075V17.385C21 17.8317 20.8427 18.2127 20.528 18.528C20.2133 18.8427 19.8323 19 19.385 19H4.616ZM4.916 12.884H19.085L15 8.8V5H9V8.8L4.916 12.884ZM4.616 18H19.385C19.5643 18 19.7117 17.9423 19.827 17.827C19.9423 17.7117 20 17.5643 20 17.385V13.885H4V17.385C4 17.5643 4.05767 17.7117 4.173 17.827C4.28833 17.9423 4.436 18 4.616 18ZM10 16.392V15.508H14V16.392H10Z" fill="#3DC812" stroke="#3DC812" stroke-width="0.4"/>
</svg>
