<svg width="24" height="24" viewBox="0 0 24 24" fill="none" xmlns="http://www.w3.org/2000/svg">
<path d="M16.1548 1.10159C15.0395 0.909853 13.8943 0.990384 12.8166 1.3359C11.739 1.68148 10.7605 2.28228 9.96459 3.08688C9.1687 3.89152 8.57829 4.8763 8.2445 5.95773C7.91071 7.03916 7.84319 8.1853 8.04711 9.29855C8.18109 10.0301 8.03591 10.6625 7.6698 11.0294L1.63738 17.0611L1.53063 17.1685C1.28853 17.4256 1.09291 17.7232 0.95257 18.0481C0.792145 18.4195 0.707535 18.8198 0.703485 19.2243C0.699469 19.6288 0.77614 20.0301 0.929071 20.4046C1.08202 20.7791 1.30773 21.1196 1.59374 21.4057C1.87981 21.6917 2.22025 21.918 2.59478 22.071C2.96935 22.224 3.37117 22.3006 3.77575 22.2966C4.18024 22.2925 4.58 22.2072 4.95135 22.0468C5.32269 21.8864 5.65871 21.6537 5.93896 21.362L11.9707 15.3296C12.3377 14.964 12.9692 14.8177 13.7015 14.9516L13.7009 14.9523C14.8142 15.1568 15.9607 15.0891 17.0424 14.7556C18.124 14.422 19.1091 13.8322 19.9139 13.0362C20.7186 12.2401 21.3195 11.2614 21.6649 10.1834C22.0102 9.10551 22.0901 7.96007 21.8978 6.84463C21.7701 6.10531 21.2328 5.61931 20.6088 5.47769C20.008 5.3414 19.3483 5.52211 18.8739 5.99533L16.1098 8.75808C16.0785 8.78763 16.0368 8.80441 15.9936 8.80441C15.9495 8.80433 15.907 8.78696 15.8755 8.75607L14.2433 7.12258C14.2124 7.091 14.1943 7.04864 14.1943 7.00442C14.1944 6.96024 14.2117 6.91781 14.2427 6.88626L17.0041 4.12618C17.4774 3.65191 17.6589 2.99171 17.5224 2.39065C17.3807 1.76674 16.8949 1.23089 16.1568 1.10226L16.1548 1.10159ZM12.4756 7.00442C12.4756 7.49862 12.6694 7.9735 13.0154 8.32638L14.6724 9.98336C15.0252 10.3292 15.4996 10.5231 15.9936 10.5232C16.4878 10.5232 16.9627 10.3293 17.3156 9.98336L20.0884 7.21188C20.1346 7.16622 20.1793 7.15366 20.2066 7.15212C20.3485 7.98995 20.2873 8.8497 20.028 9.65908C19.7671 10.4735 19.3133 11.2128 18.7054 11.8142C18.0973 12.4157 17.3527 12.8613 16.5355 13.1134C15.7182 13.3654 14.8522 13.4163 14.011 13.2617C13.0286 13.0821 11.8284 13.1875 10.9307 13.9519L10.7555 14.1137L4.69891 20.171C4.57704 20.2978 4.43136 20.3993 4.26989 20.4691C4.10833 20.5389 3.93428 20.5761 3.7583 20.5778C3.58231 20.5796 3.40762 20.5464 3.24468 20.4798C3.08186 20.4133 2.93402 20.3148 2.80963 20.1905C2.68518 20.066 2.58679 19.9176 2.52026 19.7547C2.45372 19.5918 2.42048 19.4171 2.42224 19.2411C2.42402 19.0653 2.46064 18.8916 2.53033 18.7302C2.60011 18.5686 2.70152 18.4224 2.82842 18.3005C2.83253 18.2966 2.83649 18.2924 2.84051 18.2884L8.88635 12.2439C9.79687 11.3317 9.92936 10.0359 9.73767 8.98904C9.58358 8.14791 9.63519 7.28171 9.88739 6.46462C10.1396 5.64761 10.5852 4.90329 11.1865 4.29537C11.7878 3.68756 12.5269 3.23384 13.341 2.97274C14.15 2.71331 15.0097 2.65149 15.8473 2.79281C15.8459 2.81985 15.8342 2.8645 15.7882 2.91097L13.0154 5.68313C12.6695 6.03597 12.4756 6.51029 12.4756 7.00442Z" fill="#EA4A35"/>
</svg>
