<svg width="24" height="24" viewBox="0 0 24 24" fill="none" xmlns="http://www.w3.org/2000/svg">
<path d="M20.8477 6.33392C20.8476 5.69345 20.5929 5.07947 20.14 4.62659C19.7154 4.20195 19.1491 3.95123 18.5522 3.92163L18.4327 3.91895H5.33392C4.69345 3.919 4.07947 4.1737 3.62659 4.62659C3.1737 5.07947 2.919 5.69345 2.91895 6.33392V15.0667C2.91902 15.7071 3.17372 16.3211 3.62659 16.774C4.07947 17.2268 4.69347 17.4816 5.33392 17.4816H7.51727C7.99186 17.4817 8.37665 17.8664 8.37665 18.341V20.0974L12.5325 17.6038C12.6661 17.5237 12.8192 17.4816 12.975 17.4816H18.4327C19.0731 17.4816 19.6871 17.2268 20.14 16.774C20.5929 16.3211 20.8476 15.7071 20.8477 15.0667V6.33392ZM22.5664 15.0667C22.5663 16.1628 22.1309 17.214 21.3559 17.9892C20.5807 18.7644 19.529 19.2003 18.4327 19.2004H13.212L7.95905 22.3525C7.6936 22.5117 7.36296 22.5158 7.09363 22.3633C6.82429 22.2107 6.6579 21.9249 6.6579 21.6154V19.2004H5.33392C4.23761 19.2003 3.18592 18.7644 2.41071 17.9892C1.6357 17.214 1.20027 16.1628 1.2002 15.0667V6.33392C1.20025 5.23761 1.63549 4.18592 2.41071 3.41071C3.18592 2.63549 4.23761 2.20025 5.33392 2.2002H18.4327L18.6375 2.20557C19.6592 2.25626 20.6291 2.6839 21.3559 3.41071C22.1311 4.18592 22.5663 5.23761 22.5664 6.33392V15.0667Z" fill="#EA4A35"/>
<path d="M22.3662 15.0664V6.33398C22.3662 5.29066 21.9525 4.28943 21.2148 3.55176C20.5234 2.86027 19.6002 2.45361 18.6279 2.40527L18.4277 2.40039H5.33398C4.29066 2.40045 3.28943 2.81409 2.55176 3.55176C1.81409 4.28943 1.40045 5.29066 1.40039 6.33398V15.0664C1.40047 16.1094 1.8144 17.11 2.55176 17.8477C3.28949 18.5854 4.29074 18.9999 5.33398 19H6.6582C6.76846 19.0002 6.85732 19.0899 6.85742 19.2002V21.6152C6.85742 21.8528 6.9858 22.0724 7.19238 22.1895C7.39899 22.3063 7.65287 22.3027 7.85645 22.1807L13.1094 19.0293L13.1582 19.0078C13.1756 19.003 13.1937 19 13.2119 19H18.4326C19.4759 18.9999 20.4771 18.5854 21.2148 17.8477C21.9522 17.11 22.3661 16.1094 22.3662 15.0664ZM20.6475 15.0664V6.33398C20.6474 5.74662 20.4145 5.18301 19.999 4.76758C19.6094 4.378 19.0894 4.14824 18.542 4.12109L18.4277 4.11914H5.33398C4.74662 4.11919 4.18301 4.35214 3.76758 4.76758C3.35214 5.18301 3.11919 5.74662 3.11914 6.33398V15.0664C3.11921 15.6537 3.35222 16.2174 3.76758 16.6328C4.18301 17.0482 4.74664 17.2812 5.33398 17.2812H7.51758C8.1024 17.2815 8.57607 17.7559 8.57617 18.3408V19.7441L12.4297 17.4326C12.5945 17.3337 12.783 17.2813 12.9746 17.2812H18.4326C19.02 17.2812 19.5836 17.0482 19.999 16.6328C20.4144 16.2174 20.6474 15.6537 20.6475 15.0664ZM21.0479 15.0664C21.0478 15.7599 20.7715 16.4247 20.2812 16.915C19.7909 17.4053 19.1262 17.6816 18.4326 17.6816H12.9746C12.855 17.6817 12.7378 17.7142 12.6357 17.7754L8.47949 20.2686C8.41777 20.3056 8.34099 20.3069 8.27832 20.2715C8.21571 20.236 8.17687 20.1696 8.17676 20.0977V18.3408C8.17666 17.9769 7.88153 17.6818 7.51758 17.6816H5.33398C4.64042 17.6816 3.97568 17.4053 3.48535 16.915C2.99509 16.4247 2.71884 15.7599 2.71875 15.0664V6.33398C2.71881 5.6404 2.99502 4.97569 3.48535 4.48535C3.97569 3.99502 4.6404 3.71881 5.33398 3.71875H18.4375L18.5566 3.72168H18.5625C19.2089 3.75383 19.8216 4.02574 20.2812 4.48535C20.7716 4.97569 21.0478 5.6404 21.0479 6.33398V15.0664ZM22.7666 15.0664C22.7665 16.2156 22.3096 17.3182 21.4971 18.1309C20.6844 18.9434 19.5819 19.4003 18.4326 19.4004H13.2676L8.06152 22.5244C7.73437 22.7203 7.32698 22.725 6.99512 22.5371C6.66304 22.349 6.45801 21.9967 6.45801 21.6152V19.4004H5.33398C4.18472 19.4003 3.0822 18.9434 2.26953 18.1309C1.45703 17.3182 1.00008 16.2156 1 15.0664V6.33398C1.00006 5.18469 1.45678 4.08229 2.26953 3.26953C3.08229 2.45678 4.18469 2.00006 5.33398 2H18.4375L18.6426 2.00586H18.6475C19.7185 2.05902 20.7351 2.50752 21.4971 3.26953C22.3098 4.08229 22.7665 5.18469 22.7666 6.33398V15.0664Z" fill="#EA4A35"/>
<path d="M6.2107 10.7109V10.7002C6.2107 9.97875 6.79579 9.39366 7.51722 9.39366C8.23864 9.39366 8.82374 9.97875 8.82374 10.7002V10.7109C8.82374 11.4323 8.23864 12.0174 7.51722 12.0174C6.79579 12.0174 6.2107 11.4323 6.2107 10.7109ZM10.5774 10.7109V10.7002C10.5774 9.97878 11.1619 9.3937 11.8832 9.39366C12.6047 9.39366 13.1898 9.97875 13.1898 10.7002V10.7109C13.1898 11.4323 12.6047 12.0174 11.8832 12.0174C11.2069 12.0174 10.651 11.5032 10.5841 10.8445L10.5774 10.7109ZM14.9434 10.7109V10.7002C14.9434 9.9788 15.5279 9.39374 16.2493 9.39366C16.9707 9.39366 17.5558 9.97875 17.5558 10.7002V10.7109C17.5558 11.4323 16.9707 12.0174 16.2493 12.0174C15.5279 12.0174 14.9434 11.4323 14.9434 10.7109Z" fill="#EA4A35"/>
<path d="M8.67359 10.7003C8.67359 10.0618 8.15586 9.54411 7.51734 9.54405C6.87876 9.54405 6.36109 10.0617 6.36109 10.7003V10.711C6.36115 11.3496 6.8788 11.8673 7.51734 11.8673C8.15582 11.8672 8.67352 11.3495 8.67359 10.711V10.7003ZM13.0398 10.7003C13.0398 10.0618 12.522 9.54421 11.8835 9.54405C11.2451 9.54408 10.7273 10.0617 10.7273 10.7003V10.7032L10.7332 10.8341C10.7945 11.4148 11.2866 11.8673 11.8835 11.8673C12.5219 11.8671 13.0397 11.3495 13.0398 10.711V10.7003ZM17.406 10.7003C17.406 10.0619 16.8881 9.54431 16.2498 9.54405C15.6113 9.54412 15.0935 10.0617 15.0935 10.7003V10.711C15.0936 11.3496 15.6114 11.8672 16.2498 11.8673C16.8881 11.867 17.4059 11.3494 17.406 10.711V10.7003ZM8.97339 10.711C8.97333 11.5152 8.32151 12.167 7.51734 12.1671C6.71311 12.1671 6.06037 11.5152 6.06031 10.711V10.7003C6.06031 9.89603 6.71307 9.24327 7.51734 9.24327C8.32155 9.24333 8.97339 9.89607 8.97339 10.7003V10.711ZM13.3396 10.711C13.3395 11.5151 12.6876 12.1669 11.8835 12.1671C11.1294 12.1671 10.5098 11.5939 10.4353 10.8595L10.4343 10.8517L10.4275 10.7189V10.7003C10.4275 9.89615 11.0792 9.24331 11.8835 9.24327C12.6877 9.24343 13.3396 9.89614 13.3396 10.7003V10.711ZM17.7058 10.711C17.7057 11.5151 17.0538 12.1668 16.2498 12.1671C15.4458 12.1668 14.7938 11.515 14.7937 10.711V10.7003C14.7937 9.89632 15.4447 9.24361 16.2488 9.24327C17.0528 9.24353 17.7058 9.8962 17.7058 10.7003V10.711Z" fill="#EA4A35"/>
</svg>
