<svg width="24" height="24" viewBox="0 0 24 24" fill="none" xmlns="http://www.w3.org/2000/svg">
<path d="M7.6335 8.08498C7.95657 8.01131 8.15876 7.68968 8.08509 7.36661C8.01142 7.04353 7.68979 6.84134 7.36671 6.91502L7.5001 7.5L7.6335 8.08498ZM5.5543 7.9437L5.42091 7.35872L5.42089 7.35872L5.5543 7.9437ZM3.2926 11.8713L2.70289 11.9819L2.70292 11.9821L3.2926 11.8713ZM3.694 14.0079L3.10432 14.1187L3.10435 14.1188L3.694 14.0079ZM6.35066 17.9457C6.65203 18.0835 7.00803 17.9508 7.14579 17.6494C7.28356 17.3481 7.15093 16.9921 6.84955 16.8543L6.6001 17.4L6.35066 17.9457ZM7.6261 8.2029L7.02882 8.14584L7.0288 8.14605L7.6261 8.2029ZM6.7009 17.9229L6.1036 17.866L6.10359 17.8662L6.7009 17.9229ZM6.9772 20.5419L6.56321 20.9762L6.56404 20.977L6.9772 20.5419ZM18.823 20.541L19.2362 20.9761L19.237 20.9753L18.823 20.541ZM19.0993 17.9238L18.502 17.9807L18.502 17.981L19.0993 17.9238ZM18.1732 8.2038L17.5759 8.26065L17.5759 8.26071L18.1732 8.2038ZM8.4 6.9C8.06863 6.9 7.8 7.16863 7.8 7.5C7.8 7.83137 8.06863 8.1 8.4 8.1V7.5V6.9ZM20.9496 8.616L20.3601 8.50405L20.36 8.50482L20.9496 8.616ZM18.3501 11.4643C18.0542 11.6136 17.9355 11.9745 18.0847 12.2703C18.234 12.5662 18.5949 12.6849 18.8907 12.5357L18.6204 12L18.3501 11.4643ZM13.5 2.99993C13.5 2.66856 13.2313 2.39996 12.8999 2.4C12.5686 2.40004 12.3 2.6687 12.3 3.00007L12.9 3L13.5 2.99993ZM7.5001 7.5L7.36671 6.91502L5.42091 7.35872L5.5543 7.9437L5.6877 8.52868L7.6335 8.08498L7.5001 7.5ZM5.5543 7.9437L5.42089 7.35872C4.76238 7.5089 4.20218 7.63508 3.77007 7.8049C3.31341 7.98438 2.92757 8.2389 2.67091 8.68476L3.1909 8.9841L3.7109 9.28344C3.78633 9.1524 3.9054 9.04107 4.20901 8.92175C4.53718 8.79277 4.99263 8.6872 5.68771 8.52868L5.5543 7.9437ZM3.1909 8.9841L2.67091 8.68476C2.42054 9.11969 2.37565 9.59389 2.41024 10.1069C2.44402 10.608 2.56121 11.2267 2.70289 11.9819L3.2926 11.8713L3.88231 11.7607C3.7351 10.976 3.63539 10.4396 3.60752 10.0262C3.58046 9.62486 3.62917 9.42541 3.7109 9.28344L3.1909 8.9841ZM3.2926 11.8713L2.70292 11.9821L3.10432 14.1187L3.694 14.0079L4.28369 13.8971L3.88229 11.7605L3.2926 11.8713ZM3.694 14.0079L3.10435 14.1188C3.31246 15.2252 3.71077 16.0171 4.29995 16.6263C4.87525 17.2212 5.59447 17.6 6.35066 17.9457L6.6001 17.4L6.84955 16.8543C6.11534 16.5187 5.57231 16.2158 5.16256 15.7921C4.76669 15.3827 4.45715 14.8192 4.28366 13.897L3.694 14.0079ZM7.6261 8.2029L7.0288 8.14605L6.1036 17.866L6.7009 17.9229L7.2982 17.9798L8.2234 8.25975L7.6261 8.2029ZM6.7009 17.9229L6.10359 17.8662C6.0371 18.566 5.97873 19.1618 6.00835 19.6376C6.03966 20.1403 6.17333 20.6045 6.56321 20.9762L6.9772 20.5419L7.3912 20.1076C7.29958 20.0203 7.2267 19.895 7.20603 19.563C7.18368 19.204 7.2279 18.7198 7.29821 17.9796L6.7009 17.9229ZM6.9772 20.5419L6.56404 20.977C6.94153 21.3355 7.4199 21.4747 7.94616 21.5384C8.46365 21.601 9.12571 21.6 9.9355 21.6V21V20.4C9.0947 20.4 8.51881 20.399 8.0904 20.3471C7.67075 20.2963 7.49528 20.2064 7.39037 20.1068L6.9772 20.5419ZM9.9355 21V21.6H15.8647V21V20.4H9.9355V21ZM15.8647 21V21.6C16.6745 21.6 17.3364 21.601 17.8539 21.5383C18.3804 21.4744 18.8585 21.3348 19.2362 20.9761L18.823 20.541L18.4098 20.1059C18.3042 20.2062 18.1285 20.2961 17.7093 20.347C17.2811 20.399 16.7055 20.4 15.8647 20.4V21ZM18.823 20.541L19.237 20.9753C19.6266 20.6039 19.7607 20.1402 19.7922 19.6374C19.822 19.1617 19.7635 18.5663 19.6966 17.8667L19.0993 17.9238L18.502 17.981C18.5728 18.7204 18.617 19.2041 18.5945 19.5625C18.5738 19.8937 18.5009 20.0191 18.409 20.1067L18.823 20.541ZM19.0993 17.9238L19.6966 17.8669L18.7705 8.14689L18.1732 8.2038L17.5759 8.26071L18.502 17.9807L19.0993 17.9238ZM18.1732 8.2038L18.7705 8.14695C18.6131 6.49341 17.9138 5.25581 16.8282 4.44384C15.7584 3.64366 14.3722 3.3 12.9001 3.3V3.9V4.5C14.2 4.5 15.3073 4.80479 16.1095 5.40478C16.8959 5.99299 17.4471 6.90729 17.5759 8.26065L18.1732 8.2038ZM12.9001 3.9V3.3C11.4279 3.3 10.0418 3.64392 8.97192 4.44405C7.88634 5.25591 7.18672 6.49317 7.02882 8.14584L7.6261 8.2029L8.22338 8.25996C8.35259 6.90753 8.90396 5.99334 9.69061 5.40503C10.493 4.80498 11.6003 4.5 12.9001 4.5V3.9ZM8.4 7.5V8.1H20.0802V7.5V6.9H8.4V7.5ZM20.0802 7.5V8.1C20.2546 8.1 20.3585 8.11246 20.4184 8.12775C20.4721 8.14148 20.4483 8.1467 20.4151 8.10813C20.3814 8.06886 20.3923 8.04775 20.3978 8.11027C20.4039 8.17938 20.3986 8.30171 20.3601 8.50405L20.9496 8.616L21.5391 8.72795C21.6257 8.27163 21.6682 7.72458 21.3248 7.32545C21.1494 7.12162 20.9242 7.01844 20.7154 6.96509C20.5127 6.9133 20.2928 6.9 20.0802 6.9V7.5ZM20.9496 8.616L20.36 8.50482C20.097 9.89942 19.3103 10.9797 18.3501 11.4643L18.6204 12L18.8907 12.5357C20.2453 11.8521 21.2208 10.416 21.5392 8.72718L20.9496 8.616ZM12.9001 3.9L13.5001 3.89993L13.5 2.99993L12.9 3L12.3 3.00007L12.3001 3.90007L12.9001 3.9Z" fill="#EA4A35"/>
</svg>
