<svg width="24" height="25" viewBox="0 0 24 25" fill="none" xmlns="http://www.w3.org/2000/svg">
<g clip-path="url(#clip0_233_702)">
<path d="M21.394 12.8516C21.394 7.66326 17.1887 3.45722 12.0005 3.45703C6.81207 3.45703 2.60596 7.66314 2.60596 12.8516C2.60615 18.0398 6.81218 22.2451 12.0005 22.2451C17.1886 22.2449 21.3939 18.0397 21.394 12.8516ZM23.394 12.8516C23.3939 19.1443 18.2932 24.2449 12.0005 24.2451C5.70761 24.2451 0.606146 19.1444 0.605957 12.8516C0.605957 6.55857 5.7075 1.45703 12.0005 1.45703C18.2933 1.45722 23.394 6.55869 23.394 12.8516Z" fill="#EA4A35"/>
<path d="M11.2212 7.13935C11.2212 6.58707 11.6689 6.13935 12.2212 6.13935C12.7735 6.13935 13.2212 6.58707 13.2212 7.13935V12.3522L16.9009 16.0319C17.2912 16.4225 17.2912 17.0555 16.9009 17.446C16.5104 17.8364 15.8773 17.8363 15.4868 17.446L11.5141 13.4733C11.3267 13.2859 11.2213 13.0314 11.2212 12.7663V7.13935Z" fill="#EA4A35"/>
</g>
<defs>
<clipPath id="clip0_233_702">
<rect width="24" height="24" fill="white" transform="translate(0 0.851562)"/>
</clipPath>
</defs>
</svg>
