<svg width="25" height="24" viewBox="0 0 25 24" fill="none" xmlns="http://www.w3.org/2000/svg">
<path d="M22.1652 23L15.1803 15.7157L16.5151 14.3237L23.5 21.608L22.1652 23ZM4.68278 23L3.34669 21.608L12.1005 12.479L8.36395 8.60858L7.67703 9.32494L6.48436 8.05623V10.4178L5.79745 11.1342L2.5 7.69543L3.18692 6.97907H5.45147L4.24245 5.74185L6.96621 2.90135C7.25641 2.59871 7.57429 2.37392 7.91984 2.22698C8.26456 2.08091 8.63234 2.00787 9.02319 2.00787C9.41319 2.00787 9.78097 2.08091 10.1265 2.22698C10.4721 2.37305 10.7895 2.59784 11.0789 2.90135L9.00809 5.06091L10.387 6.49888L9.70004 7.21523L13.4366 11.0857L16.6535 7.72954C16.4564 7.43915 16.3197 7.14176 16.2434 6.83737C16.167 6.53299 16.1289 6.19886 16.1289 5.835C16.1289 4.76353 16.4849 3.85649 17.197 3.11389C17.9091 2.3713 18.7788 2 19.8063 2C20.0243 2 20.234 2.01618 20.4353 2.04854C20.6383 2.08003 20.8383 2.14476 21.0354 2.24272L18.4299 4.95989L20.6454 7.27034L23.2509 4.55448C23.349 4.75915 23.4124 4.96689 23.4409 5.17768C23.4694 5.38935 23.4836 5.60846 23.4836 5.835C23.4836 6.90647 23.1272 7.81351 22.4143 8.5561C21.703 9.29957 20.8337 9.67131 19.8063 9.67131C19.4573 9.67131 19.137 9.63239 18.8451 9.55454C18.5532 9.4767 18.268 9.33281 17.9896 9.12289L4.68278 23Z" fill="white"/>
</svg>
