<svg width="24" height="25" viewBox="0 0 24 25" fill="none" xmlns="http://www.w3.org/2000/svg">
<path d="M19.9999 7.22184C19.9999 5.95025 19.9875 5.55395 19.8925 5.26481L19.8905 5.25895C19.7938 4.95945 19.6293 4.68589 19.41 4.46012C19.191 4.23463 18.923 4.0626 18.6268 3.95719C18.3592 3.86543 17.9886 3.85172 16.7548 3.85172H7.24499C6.00979 3.85172 5.63967 3.86516 5.37195 3.95719C5.07613 4.06258 4.80856 4.23488 4.58972 4.46012C4.37053 4.68571 4.20601 4.95869 4.10925 5.25797L4.10827 5.26188C4.01257 5.55384 3.99988 5.95029 3.99988 7.22184V21.1759C4.34965 20.8822 4.79117 20.7189 5.24988 20.7189L5.43249 20.7267C5.85377 20.7664 6.25231 20.9432 6.56628 21.2316L7.04968 21.674L7.05359 21.6779C7.17499 21.7901 7.33454 21.8517 7.49988 21.8517C7.66522 21.8517 7.82476 21.7901 7.94617 21.6779C8.43717 21.2238 9.08111 20.9709 9.74988 20.9709C10.4186 20.9709 11.0626 21.2238 11.5536 21.6779C11.675 21.7901 11.8345 21.8517 11.9999 21.8517C12.1652 21.8517 12.3248 21.7901 12.4462 21.6779C12.9372 21.2238 13.5811 20.9709 14.2499 20.9709C14.9186 20.9709 15.5626 21.2238 16.0536 21.6779C16.175 21.7901 16.3345 21.8517 16.4999 21.8517C16.6652 21.8517 16.8248 21.7901 16.9462 21.6779L16.9501 21.674L17.4325 21.2316C17.7916 20.9015 18.262 20.7189 18.7499 20.7189L18.9325 20.7267C19.3252 20.7637 19.6968 20.9214 19.9999 21.1759V7.22184ZM21.9999 21.2257C21.9999 22.878 20.0604 23.8875 18.7509 22.7355L18.2997 23.1496L18.2987 23.1486C17.8082 23.6003 17.1668 23.8517 16.4999 23.8517C15.8311 23.8517 15.1872 23.5997 14.6962 23.1457C14.5748 23.0334 14.4152 22.9709 14.2499 22.9709C14.0845 22.9709 13.925 23.0334 13.8036 23.1457C13.3126 23.5997 12.6686 23.8517 11.9999 23.8517C11.3311 23.8517 10.6872 23.5997 10.1962 23.1457C10.0748 23.0334 9.91524 22.9709 9.74988 22.9709C9.58451 22.9709 9.425 23.0334 9.30359 23.1457C8.81258 23.5997 8.16864 23.8517 7.49988 23.8517C6.83273 23.8517 6.19063 23.6006 5.70007 23.1486L5.24792 22.7355C3.93838 23.8867 1.99989 22.8778 1.99988 21.2257V7.22184C1.99988 6.10925 1.98776 5.31406 2.20691 4.64274C2.39806 4.05159 2.72223 3.51218 3.15515 3.06656C3.58826 2.62079 4.11832 2.28053 4.70398 2.07242L4.70984 2.07047C5.37776 1.83784 6.16881 1.85172 7.24499 1.85172H16.7548C17.6964 1.85172 18.4196 1.84116 19.0331 1.9943L19.2899 2.07047L19.2958 2.07242C19.8816 2.28067 20.4115 2.62151 20.8446 3.06754C21.2763 3.51212 21.6007 4.04944 21.7919 4.63883L21.8641 4.89664C22.0097 5.51409 21.9999 6.24724 21.9999 7.22184V21.2257Z" fill="#EA4A35"/>
<path d="M13.829 8.25211C14.1601 7.88167 14.7288 7.84991 15.0995 8.18082C15.4699 8.51189 15.5017 9.08066 15.1708 9.45133L11.6005 13.4513C11.4297 13.6426 11.1849 13.7521 10.9286 13.7521C10.6724 13.752 10.4284 13.6424 10.2577 13.4513L8.82898 11.8517C8.49787 11.481 8.52954 10.9113 8.90027 10.5802C9.27099 10.2492 9.83969 10.2818 10.1708 10.6525L10.9286 11.5002L13.829 8.25211Z" fill="#EA4A35"/>
<path d="M16.4999 15.4513C16.9969 15.4513 17.4003 15.8547 17.4003 16.3517C17.4003 16.8488 16.9969 17.2521 16.4999 17.2521H7.49988C7.00282 17.2521 6.59949 16.8488 6.59949 16.3517C6.59949 15.8547 7.00282 15.4513 7.49988 15.4513H16.4999Z" fill="#EA4A35"/>
</svg>
