<svg width="24" height="24" viewBox="0 0 24 24" fill="none" xmlns="http://www.w3.org/2000/svg">
<path d="M12 5C7.58171 5 4 6.94286 4 8.42857V11.8571C4 13.3429 7.58171 15.2857 12 15.2857C16.4183 15.2857 20 13.3429 20 11.8571V8.42857C20 6.94286 16.4183 5 12 5ZM12 5C16.4183 5 20 6.84914 20 8.42629C20 10.0034 16.4183 11.8389 12 11.8389C7.58171 11.8389 4 10.0034 4 8.42629C4 6.848 7.58171 5 12 5ZM20 12.1336V15.3651C20 16.7654 16.4183 18.5966 12 18.5966C7.58171 18.5966 4 16.7654 4 15.3651V12.1336" stroke="#EA4A35" stroke-width="1.2" stroke-linecap="round" stroke-linejoin="round"/>
</svg>
