<svg width="24" height="24" viewBox="0 0 24 24" fill="none" xmlns="http://www.w3.org/2000/svg">
<path d="M5.63573 13.7392C5.04052 13.7392 4.53994 13.5362 4.13399 13.1303C3.72804 12.7243 3.52506 12.2237 3.52506 11.6285V8.09737H16.1954C16.2151 7.57111 16.3815 7.09621 16.6946 6.67267C17.0077 6.24913 17.4182 5.95434 17.9262 5.7883L22.3607 4.29395L22.6963 5.2849L18.2607 6.7782C17.9596 6.87881 17.7151 7.06068 17.5272 7.32381C17.3387 7.58624 17.2444 7.88068 17.2444 8.20713V11.6285C17.2444 12.2146 17.0414 12.7131 16.6355 13.1239C16.2295 13.5341 15.729 13.7392 15.1337 13.7392H5.63573ZM5.63573 12.6839H15.1337C15.4328 12.6839 15.6836 12.5829 15.8862 12.381C16.0888 12.1791 16.1898 11.9282 16.1891 11.6285V9.15271H4.5804V11.6285C4.5804 11.9275 4.68171 12.1784 4.88433 12.381C5.08696 12.5836 5.33742 12.6846 5.63573 12.6839ZM9.85707 19.7061V17.3104C9.85707 17.1219 9.79621 16.9668 9.6745 16.845C9.55278 16.7226 9.3973 16.6614 9.20804 16.6614H2.46973V15.6061H9.20804C9.67661 15.6061 10.0776 15.7732 10.4111 16.1074C10.7446 16.4416 10.9117 16.8426 10.9124 17.3104V19.7061H9.85707ZM13.0231 19.7061V17.3104C13.0231 16.8426 13.1902 16.4416 13.5244 16.1074C13.8586 15.7732 14.2596 15.6061 14.7274 15.6061H21.4658V16.6614H14.7285C14.5385 16.6614 14.3827 16.7226 14.261 16.845C14.1393 16.9661 14.0784 17.1215 14.0784 17.3115V19.7061H13.0231Z" fill="#3DC812" stroke="#3DC812" stroke-width="0.4"/>
</svg>
