<svg width="24" height="24" viewBox="0 0 24 24" fill="none" xmlns="http://www.w3.org/2000/svg">
<path d="M21.1111 14.1016C21.1349 14.1987 21.1395 14.2995 21.1244 14.3983C21.1093 14.4971 21.0749 14.592 21.0231 14.6775C20.9713 14.7631 20.9032 14.8375 20.8226 14.8967C20.7421 14.9559 20.6507 14.9987 20.5536 15.0225L18.2094 15.5933L18.824 17.887C18.8499 17.9836 18.8565 18.0843 18.8435 18.1835C18.8304 18.2826 18.798 18.3782 18.748 18.4647C18.698 18.5513 18.6314 18.6272 18.552 18.6881C18.4727 18.7489 18.3821 18.7935 18.2856 18.8193C18.2215 18.8378 18.1553 18.848 18.0886 18.8498C17.9212 18.8496 17.7585 18.7943 17.6257 18.6923C17.4929 18.5903 17.3975 18.4474 17.3542 18.2856L16.6197 15.5457L12.7611 13.3186V17.7738L14.8217 19.8335C14.8924 19.9042 14.9485 19.9881 14.9868 20.0805C15.025 20.1729 15.0447 20.2719 15.0447 20.3719C15.0447 20.4719 15.025 20.571 14.9868 20.6634C14.9485 20.7557 14.8924 20.8397 14.8217 20.9104C14.751 20.9811 14.667 21.0372 14.5746 21.0755C14.4823 21.1137 14.3832 21.1334 14.2832 21.1334C14.1832 21.1334 14.0842 21.1137 13.9918 21.0755C13.8994 21.0372 13.8155 20.9811 13.7448 20.9104L12 19.1647L10.2552 20.9104C10.1845 20.9811 10.1006 21.0372 10.0082 21.0755C9.91578 21.1137 9.81676 21.1334 9.71676 21.1334C9.61676 21.1334 9.51773 21.1137 9.42534 21.0755C9.33295 21.0372 9.24901 20.9811 9.17829 20.9104C9.10758 20.8397 9.05149 20.7557 9.01322 20.6634C8.97495 20.571 8.95526 20.4719 8.95526 20.3719C8.95526 20.2719 8.97495 20.1729 9.01322 20.0805C9.05149 19.9881 9.10758 19.9042 9.17829 19.8335L11.2389 17.7738V13.3186L7.3812 15.5457L6.64675 18.2856C6.60339 18.4475 6.50781 18.5906 6.37484 18.6926C6.24187 18.7946 6.07895 18.8498 5.91136 18.8498C5.84458 18.8496 5.77809 18.841 5.71348 18.8241C5.61689 18.7983 5.52634 18.7536 5.447 18.6928C5.36766 18.632 5.30108 18.5561 5.25108 18.4695C5.20107 18.3829 5.16862 18.2873 5.15557 18.1882C5.14252 18.0891 5.14913 17.9883 5.17502 17.8918L5.78959 15.5981L3.44547 15.0273C3.24942 14.9791 3.08054 14.855 2.97599 14.6823C2.87144 14.5096 2.83978 14.3024 2.88798 14.1064C2.93617 13.9103 3.06026 13.7414 3.23297 13.6369C3.40567 13.5323 3.61283 13.5007 3.80888 13.5489L6.6106 14.2367L10.4778 12.0001L6.61155 9.76821L3.80983 10.456C3.75036 10.4706 3.68935 10.478 3.62812 10.4779C3.44203 10.478 3.26234 10.41 3.12302 10.2866C2.9837 10.1632 2.89442 9.99309 2.87204 9.80834C2.84967 9.6236 2.89575 9.43706 3.00159 9.28399C3.10742 9.13093 3.26567 9.02194 3.44642 8.97764L5.79054 8.40683L5.17597 6.10837C5.12374 5.91333 5.15113 5.70553 5.25211 5.53069C5.35309 5.35584 5.51939 5.22828 5.71443 5.17605C5.90947 5.12382 6.11727 5.15121 6.29211 5.25219C6.46696 5.35317 6.59453 5.51947 6.64675 5.71451L7.3812 8.45439L11.2389 10.6815V6.22634L9.17829 4.16666C9.03548 4.02386 8.95526 3.83016 8.95526 3.6282C8.95526 3.5282 8.97495 3.42918 9.01322 3.33679C9.05149 3.2444 9.10758 3.16045 9.17829 3.08974C9.24901 3.01903 9.33295 2.96293 9.42534 2.92467C9.51773 2.8864 9.61676 2.8667 9.71676 2.8667C9.91872 2.8667 10.1124 2.94693 10.2552 3.08974L12 4.83546L13.7448 3.08974C13.8876 2.94693 14.0813 2.8667 14.2832 2.8667C14.4852 2.8667 14.6789 2.94693 14.8217 3.08974C14.9645 3.23255 15.0447 3.42624 15.0447 3.6282C15.0447 3.83016 14.9645 4.02386 14.8217 4.16666L12.7611 6.22634V10.6815L16.6188 8.45439L17.3532 5.71451C17.4055 5.51947 17.533 5.35317 17.7079 5.25219C17.8827 5.15121 18.0905 5.12382 18.2856 5.17605C18.4806 5.22828 18.6469 5.35584 18.7479 5.53069C18.8489 5.70553 18.8762 5.91333 18.824 6.10837L18.2094 8.40207L20.5536 8.97288C20.7394 9.01256 20.9036 9.12028 21.014 9.27489C21.1244 9.42949 21.173 9.61979 21.1502 9.8084C21.1274 9.99701 21.035 10.1703 20.8909 10.2942C20.7469 10.4181 20.5618 10.4836 20.3719 10.4779C20.3106 10.478 20.2496 10.4706 20.1902 10.456L17.3884 9.76821L13.5222 12.0001L17.3884 14.2319L20.1902 13.5441C20.2872 13.5202 20.3881 13.5157 20.4869 13.5308C20.5857 13.5459 20.6806 13.5803 20.7661 13.6321C20.8516 13.6839 20.9261 13.752 20.9853 13.8325C21.0445 13.9131 21.0872 14.0045 21.1111 14.1016Z" fill="#3DC812"/>
</svg>
