<svg width="24" height="24" viewBox="0 0 24 24" fill="none" xmlns="http://www.w3.org/2000/svg">
<g clip-path="url(#clip0_233_649)">
<path d="M5.07642 12.5565C5.07642 11.9189 5.3297 11.3075 5.78055 10.8566C6.23141 10.4058 6.84289 10.1525 7.48049 10.1525H16.5198C17.1574 10.1525 17.7689 10.4058 18.2198 10.8566C18.6706 11.3075 18.9239 11.9189 18.9239 12.5565V21.5959C18.9239 22.2335 18.6706 22.845 18.2198 23.2958C17.7689 23.7467 17.1574 23.9999 16.5198 23.9999H7.48049C6.84289 23.9999 6.23141 23.7467 5.78055 23.2958C5.3297 22.845 5.07642 22.2335 5.07642 21.5959V12.5565ZM6.03805 21.5959C6.03805 21.9784 6.19002 22.3453 6.46053 22.6158C6.73104 22.8863 7.09793 23.0383 7.48049 23.0383H16.5198C16.9024 23.0383 17.2693 22.8863 17.5398 22.6158C17.8103 22.3453 17.9623 21.9784 17.9623 21.5959V14.9606H6.03805V21.5959ZM6.03805 12.5565V13.999H17.9623V12.5565C17.9623 12.174 17.8103 11.8071 17.5398 11.5366C17.2693 11.2661 16.9024 11.1141 16.5198 11.1141H7.48049C7.09793 11.1141 6.73104 11.2661 6.46053 11.5366C6.19002 11.8071 6.03805 12.174 6.03805 12.5565ZM8.92294 13.3258C9.12697 13.3258 9.32264 13.2448 9.46692 13.1005C9.61119 12.9562 9.69224 12.7606 9.69224 12.5565C9.69224 12.3525 9.61119 12.1568 9.46692 12.0126C9.32264 11.8683 9.12697 11.7872 8.92294 11.7872C8.7189 11.7872 8.52323 11.8683 8.37896 12.0126C8.23468 12.1568 8.15363 12.3525 8.15363 12.5565C8.15363 12.7606 8.23468 12.9562 8.37896 13.1005C8.52323 13.2448 8.7189 13.3258 8.92294 13.3258ZM12.0002 13.3258C12.2042 13.3258 12.3999 13.2448 12.5441 13.1005C12.6884 12.9562 12.7695 12.7606 12.7695 12.5565C12.7695 12.3525 12.6884 12.1568 12.5441 12.0126C12.3999 11.8683 12.2042 11.7872 12.0002 11.7872C11.7961 11.7872 11.6004 11.8683 11.4562 12.0126C11.3119 12.1568 11.2308 12.3525 11.2308 12.5565C11.2308 12.7606 11.3119 12.9562 11.4562 13.1005C11.6004 13.2448 11.7961 13.3258 12.0002 13.3258ZM15.8467 12.5565C15.8467 12.7606 15.7656 12.9562 15.6214 13.1005C15.4771 13.2448 15.2814 13.3258 15.0774 13.3258C14.8733 13.3258 14.6777 13.2448 14.5334 13.1005C14.3891 12.9562 14.3081 12.7606 14.3081 12.5565C14.3081 12.3525 14.3891 12.1568 14.5334 12.0126C14.6777 11.8683 14.8733 11.7872 15.0774 11.7872C15.2814 11.7872 15.4771 11.8683 15.6214 12.0126C15.7656 12.1568 15.8467 12.3525 15.8467 12.5565ZM7.96131 21.1151V16.8839H16.039V21.1151H7.96131ZM7.67282 15.9222C7.49429 15.9222 7.32307 15.9932 7.19683 16.1194C7.0706 16.2456 6.99968 16.4169 6.99968 16.5954V21.4035C6.99968 21.7755 7.30124 22.0767 7.67282 22.0767H16.3275C16.506 22.0767 16.6772 22.0058 16.8035 21.8795C16.9297 21.7533 17.0006 21.5821 17.0006 21.4035V16.5954C17.0006 16.4169 16.9297 16.2456 16.8035 16.1194C16.6772 15.9932 16.506 15.9222 16.3275 15.9222H7.67282Z" fill="#3DC812"/>
<path d="M6.50706 7.74387C6.17379 7.74387 5.89012 7.62683 5.65605 7.39275C5.42197 7.15867 5.30493 6.87526 5.30493 6.54249V3.87565C5.30493 3.78241 5.32626 3.69116 5.36891 3.6019C5.41156 3.51263 5.4676 3.43328 5.53702 3.36385L9.02437 -0.0118408H14.9755L18.3386 3.23888C18.4467 3.3465 18.533 3.4737 18.5975 3.6205C18.6619 3.76729 18.6944 3.92053 18.6949 4.08022V6.54249C18.6949 6.87476 18.5779 7.15818 18.3438 7.39275C18.1097 7.62683 17.8263 7.74387 17.4935 7.74387H6.50706ZM6.73022 3.19425H17.2704L15.0757 0.732047H9.19242L6.73022 3.19425ZM6.50706 6.99998H17.4935C17.6269 6.99998 17.7365 6.95708 17.8223 6.87129C17.9081 6.78549 17.951 6.67589 17.951 6.54249V3.93888H6.04882V6.54249C6.04882 6.67589 6.09172 6.78549 6.17751 6.87129C6.26331 6.95708 6.37316 6.99998 6.50706 6.99998ZM10.5121 5.80381V5.14621H13.4877V5.80381H10.5121Z" fill="#3DC812" stroke="#3DC812" stroke-width="0.4"/>
</g>
<defs>
<clipPath id="clip0_233_649">
<rect width="24" height="24" fill="white"/>
</clipPath>
</defs>
</svg>
