<svg width="24" height="24" viewBox="0 0 24 24" fill="none" xmlns="http://www.w3.org/2000/svg">
<path d="M12.3579 1.11432L19.5766 3.42432C20.0625 3.57969 20.4864 3.88543 20.7872 4.29743C21.088 4.70942 21.25 5.20634 21.25 5.71645V10.5564C21.25 12.7097 20.81 14.9317 19.4584 16.9942C18.1067 19.0539 15.904 20.8621 12.5394 22.2948C12.2502 22.4177 11.9392 22.4811 11.625 22.4811C11.3108 22.4811 10.9998 22.4177 10.7106 22.2948C7.346 20.8621 5.14325 19.0539 3.79163 16.9942C2.44 14.9317 2 12.7097 2 10.5564V5.71645C1.99996 5.20634 2.16203 4.70942 2.4628 4.29743C2.76358 3.88543 3.18751 3.57969 3.67338 3.42432L10.8921 1.11432C11.3688 0.961893 11.8812 0.961893 12.3579 1.11432ZM11.5191 3.0792L4.30038 5.3892C4.23118 5.41128 4.17076 5.4547 4.12778 5.51325C4.0848 5.57179 4.06146 5.64244 4.06113 5.71507V10.5564C4.06113 12.4264 4.43925 14.2222 5.5145 15.8626C6.5925 17.5043 8.43087 19.0828 11.5177 20.3973C11.5513 20.4113 11.5873 20.4185 11.6236 20.4185C11.66 20.4185 11.696 20.4113 11.7295 20.3973C14.8164 19.0814 16.6548 17.5057 17.7328 15.8639C18.8108 14.2222 19.1875 12.4237 19.1875 10.5564V5.71645C19.1875 5.64358 19.1643 5.57262 19.1212 5.5138C19.0782 5.45498 19.0177 5.41135 18.9482 5.3892L11.7295 3.0792C11.6611 3.05721 11.5875 3.05721 11.5191 3.0792ZM16.135 9.56645L11.3225 14.3789C11.1291 14.5721 10.867 14.6805 10.5938 14.6805C10.3205 14.6805 10.0584 14.5721 9.865 14.3789L7.8025 12.3164C7.66675 12.1904 7.56752 12.0301 7.51525 11.8524C7.46298 11.6746 7.45961 11.4861 7.5055 11.3066C7.55139 11.1272 7.64483 10.9634 7.77599 10.8326C7.90715 10.7018 8.07116 10.6087 8.25075 10.5633C8.43002 10.5175 8.61832 10.5208 8.79589 10.5728C8.97346 10.6248 9.13377 10.7237 9.26 10.8589L10.5938 12.1927L14.6775 8.10895C14.873 7.92656 15.1316 7.82721 15.3989 7.83182C15.6662 7.83644 15.9212 7.94467 16.1103 8.1337C16.2993 8.32273 16.4075 8.57778 16.4121 8.84507C16.4167 9.11236 16.3174 9.371 16.135 9.56645Z" fill="#EA4A35"/>
</svg>
