<svg width="24" height="24" viewBox="0 0 24 24" fill="none" xmlns="http://www.w3.org/2000/svg">
<path d="M12.4724 0.977417V6.68542L13.0027 6.81726C13.2994 6.89146 13.7588 7.26158 14.1638 8.03796C14.5505 8.77917 14.8171 9.76707 14.8171 10.828V22.5507C14.8171 22.6759 14.767 22.7961 14.6785 22.8846C14.5899 22.9732 14.4697 23.0233 14.3445 23.0233H9.65503C9.52992 23.0232 9.40952 22.9731 9.32104 22.8846C9.2326 22.7961 9.18337 22.6758 9.18335 22.5507V10.828C9.18335 9.76698 9.44997 8.77919 9.83667 8.03796C10.2418 7.26153 10.7011 6.89143 10.9978 6.81726L11.5281 6.68542V0.977417H12.4724Z" stroke="#3DC812" stroke-width="1.4"/>
</svg>
