<svg width="33" height="32" viewBox="0 0 33 32" fill="none" xmlns="http://www.w3.org/2000/svg">
<g clip-path="url(#clip0_280_579)">
<circle cx="26.5" cy="6" r="4" fill="#3DC812"/>
<path fill-rule="evenodd" clip-rule="evenodd" d="M24.1825 8.00834L24.1075 7.95C23.9633 6.855 23.4391 5.71417 22.6208 4.7525C21.2916 3.19 19.125 2 16.225 2C13.3666 2 11.3524 3.30333 10.1641 4.91917C9.60948 5.66646 9.21332 6.51916 8.99995 7.425C8.9612 7.59464 8.93006 7.76592 8.90662 7.93833L8.81662 8.0075C7.87995 8.73334 7.19245 9.61334 7.35578 10.6225C7.51245 11.5975 8.39412 12.1908 9.21412 12.5533C9.42301 12.6456 9.64717 12.7322 9.88662 12.8133C9.76613 13.7527 9.84718 14.707 10.1244 15.6126C10.4016 16.5183 10.8685 17.3544 11.4942 18.0654C12.1198 18.7765 12.8898 19.346 13.7528 19.7362C14.6158 20.1263 15.552 20.3281 16.4991 20.3281C17.4462 20.3281 18.3824 20.1263 19.2454 19.7362C20.1084 19.346 20.8784 18.7765 21.504 18.0654C22.1297 17.3544 22.5967 16.5183 22.8739 15.6126C23.1511 14.707 23.2321 13.7527 23.1116 12.8133C23.3511 12.7328 23.5752 12.6461 23.7841 12.5533C24.6041 12.1908 25.485 11.5975 25.6425 10.6225C25.8058 9.61334 25.1183 8.73334 24.1816 8.0075M10.62 9.22583C10.5116 8.91417 10.4833 8.41333 10.6241 7.79417C10.7624 7.19 11.0491 6.5275 11.4991 5.91417V8.25C11.4991 8.47102 11.5869 8.68298 11.7432 8.83926C11.8995 8.99554 12.1114 9.08333 12.3325 9.08333C12.5535 9.08333 12.7654 8.99554 12.9217 8.83926C13.078 8.68298 13.1658 8.47102 13.1658 8.25V4.425C13.8516 4.035 14.6808 3.7625 15.6658 3.6875V6.58333C15.6658 6.80435 15.7536 7.01631 15.9099 7.17259C16.0661 7.32887 16.2781 7.41667 16.4991 7.41667C16.7201 7.41667 16.9321 7.32887 17.0884 7.17259C17.2447 7.01631 17.3324 6.80435 17.3324 6.58333V3.73917C18.2124 3.85 19.062 4.13317 19.8325 4.5725V8.25C19.8325 8.47102 19.9202 8.68298 20.0765 8.83926C20.2328 8.99554 20.4448 9.08333 20.6658 9.08333C20.8868 9.08333 21.0988 8.99554 21.255 8.83926C21.4113 8.68298 21.4991 8.47102 21.4991 8.25V6.015C22.42 7.195 22.6358 8.46833 22.3766 9.2325C22.3124 9.42163 22.3183 9.62753 22.3931 9.8127C22.468 9.99788 22.6069 10.15 22.7845 10.2414C22.9621 10.3328 23.1666 10.3573 23.3608 10.3106C23.555 10.2638 23.7259 10.1489 23.8425 9.98667C24.0066 10.2158 24.0008 10.3375 23.9975 10.3567C23.9866 10.4233 23.8591 10.6983 23.11 11.03C22.785 11.1733 22.3983 11.3025 21.9641 11.4167L21.9441 11.4217C21.4733 11.5433 20.9491 11.6467 20.3883 11.7317C19.3481 11.8816 18.2998 11.9678 17.2491 11.99C16.5268 12.0083 15.8042 12.0005 15.0824 11.9667C14.2524 11.929 13.4247 11.8501 12.6024 11.73C12.0813 11.6545 11.5645 11.5516 11.0541 11.4217L11.0341 11.4167C10.6424 11.3188 10.2592 11.1895 9.88828 11.03C9.13912 10.6983 9.01162 10.4233 9.00078 10.3567C8.99745 10.3375 8.99162 10.2158 9.15578 9.98667C9.27253 10.1496 9.4441 10.265 9.63902 10.3117C9.83395 10.3584 10.0392 10.3333 10.2171 10.2409C10.395 10.1486 10.5336 9.9952 10.6076 9.80891C10.6816 9.62263 10.686 9.41591 10.62 9.22667M11.5175 13.2342C11.7947 13.2881 12.0802 13.3372 12.3741 13.3817C13.2641 13.515 14.2225 13.6 15.1975 13.64C16.0665 13.6758 16.9367 13.6758 17.8058 13.64C18.7758 13.6 19.7308 13.515 20.6166 13.3817C20.9133 13.3383 21.2013 13.2892 21.4808 13.2342C21.54 13.9243 21.4553 14.6192 21.2318 15.2748C21.0084 15.9305 20.6512 16.5325 20.1828 17.0429C19.7144 17.5532 19.1451 17.9606 18.511 18.2393C17.8769 18.518 17.1918 18.662 16.4991 18.662C15.8064 18.662 15.1213 18.518 14.4872 18.2393C13.8531 17.9606 13.2838 17.5532 12.8154 17.0429C12.3471 16.5325 11.9898 15.9305 11.7664 15.2748C11.543 14.6192 11.4582 13.9243 11.5175 13.2342Z" fill="white"/>
<path fill-rule="evenodd" clip-rule="evenodd" d="M20.6667 20.7417C21.215 20.8375 21.7733 20.9492 22.3333 21.0767C26.8692 22.1125 31.5 24.1833 31.5 27V32H1.5V27C1.5 24.1833 6.13083 22.1125 10.6667 21.0767C11.2193 20.9508 11.775 20.8391 12.3333 20.7417V24.5H20.6667V20.7417ZM9 23.2417C9.545 23.075 10.1042 22.9242 10.6667 22.7883V26.1667H22.3333V22.7892C23.1776 22.9907 24.0119 23.2321 24.8333 23.5125L26.5 24.1642C26.7422 24.2719 26.975 24.3828 27.1983 24.4967C28.1458 24.9783 28.8483 25.475 29.2933 25.95C29.7308 26.4167 29.8333 26.7608 29.8333 27V30.3333H3.16667V27C3.16667 26.7608 3.26917 26.4167 3.70667 25.95C4.15167 25.475 4.85417 24.9783 5.80167 24.4967C6.27583 24.255 6.79 24.0283 7.33333 23.8175L9 23.2417Z" fill="white"/>
</g>
<defs>
<clipPath id="clip0_280_579">
<rect width="32" height="32" fill="white" transform="translate(0.5)"/>
</clipPath>
</defs>
</svg>
