<svg width="88" height="11" viewBox="0 0 88 11" fill="none" xmlns="http://www.w3.org/2000/svg">
<g clip-path="url(#clip0_169_584)">
<path d="M9.112 2.46515L5.97 9.96115H3.92L2.374 3.97815C2.28 3.61015 2.199 3.47515 1.913 3.32015C1.447 3.06715 0.677 2.83015 0 2.68215L0.046 2.46515H3.346C3.56165 2.46493 3.77027 2.54181 3.93421 2.68191C4.09815 2.82201 4.2066 3.0161 4.24 3.22915L5.057 7.56715L7.075 2.46515H9.112ZM17.145 7.51415C17.153 5.53515 14.409 5.42615 14.428 4.54215C14.434 4.27315 14.69 3.98715 15.25 3.91415C15.9063 3.85182 16.5672 3.96791 17.163 4.25015L17.503 2.66015C16.923 2.44195 16.3087 2.32917 15.689 2.32715C13.772 2.32715 12.423 3.34715 12.411 4.80615C12.399 5.88515 13.374 6.48615 14.109 6.84615C14.865 7.21315 15.119 7.44915 15.115 7.77715C15.11 8.28115 14.513 8.50215 13.955 8.51115C12.98 8.52615 12.415 8.24815 11.963 8.03815L11.612 9.68015C12.065 9.88815 12.901 10.0701 13.768 10.0781C15.805 10.0781 17.138 9.07215 17.145 7.51415ZM22.206 9.96115H24L22.435 2.46515H20.779C20.602 2.4631 20.4284 2.51449 20.2811 2.61261C20.1337 2.71073 20.0194 2.85102 19.953 3.01515L17.044 9.96115H19.08L19.485 8.84115H21.973L22.206 9.96115ZM20.043 7.30515L21.063 4.49015L21.651 7.30515H20.043ZM11.883 2.46515L10.28 9.96115H8.34L9.945 2.46515H11.883Z" fill="#0056A4"/>
</g>
<g clip-path="url(#clip1_169_584)">
<path d="M37.5156 2.35156H41.6037V9.69717H37.5156V2.35156Z" fill="#FF5F00"/>
<path d="M37.7753 6.02466C37.7753 4.5322 38.4761 3.20841 39.5532 2.35183C38.7616 1.72889 37.7623 1.35254 36.6722 1.35254C34.0894 1.35254 32 3.44199 32 6.02466C32 8.60734 34.0894 10.6968 36.6721 10.6968C37.7623 10.6968 38.7616 10.3204 39.5532 9.69744C38.4761 8.85387 37.7753 7.51713 37.7753 6.02466Z" fill="#EB001B"/>
<path d="M47.1194 6.02466C47.1194 8.60728 45.03 10.6968 42.4473 10.6968C41.3571 10.6968 40.3578 10.3204 39.5662 9.69744C40.6563 8.84092 41.3442 7.51713 41.3442 6.02466C41.3442 4.5322 40.6433 3.20841 39.5662 2.35183C40.3578 1.72889 41.3571 1.35254 42.4473 1.35254C45.03 1.35254 47.1194 3.45499 47.1194 6.02466Z" fill="#F79E1B"/>
</g>
<g clip-path="url(#clip2_169_584)">
<path fill-rule="evenodd" clip-rule="evenodd" d="M61.0462 6.94053L59.9528 4.27787L58.8662 6.94053H61.0462ZM71.5248 9.82187L71.5182 4.59253L69.2035 9.82187H67.8035L65.4808 4.5872V9.82187H62.2355L61.6222 8.33253H58.2982L57.6782 9.82187H55.9448L58.8035 3.14453H61.1742L63.8888 9.4672V3.14453H66.4942L68.5835 7.67387L70.5022 3.14453H73.1608V9.82187H71.5248ZM75.7022 8.45653V7.1272H79.2062V5.76453H75.7022V4.54986H79.7035L81.4502 6.49653L79.6262 8.45653H75.7022ZM86.5168 9.84853H84.4422L82.4768 7.63653L80.4342 9.84853H74.1115V3.16853H80.5315L82.4955 5.35786L84.5262 3.16853H86.6115L83.5088 6.50853L86.5168 9.84853Z" fill="#006FCF"/>
</g>
<defs>
<clipPath id="clip0_169_584">
<rect width="24" height="9" fill="white" transform="translate(0 1.35156)"/>
</clipPath>
<clipPath id="clip1_169_584">
<rect width="15.2941" height="10" fill="white" transform="translate(32 0.851562)"/>
</clipPath>
<clipPath id="clip2_169_584">
<rect width="32" height="8" fill="white" transform="translate(55.2942 1.85156)"/>
</clipPath>
</defs>
</svg>
