<svg width="24" height="25" viewBox="0 0 24 25" fill="none" xmlns="http://www.w3.org/2000/svg">
<path d="M20.7227 2.82227C21.5126 4.12109 21.9102 5.62107 21.8672 7.14062L21.8662 7.13965C21.8593 9.74798 20.7597 12.637 19.3125 15.3525C17.8493 18.098 15.9738 20.7715 14.3115 22.959L14.042 23.3145H5.29883L1.98145 3.52734L10.4238 2.73242L11.7617 13.7021C12.0591 13.1044 12.3451 12.4835 12.5996 11.8604C13.2341 10.3069 13.6415 8.83117 13.6416 7.70801V7.69141L13.6426 7.67578C13.6764 6.7122 13.4876 5.75375 13.0908 4.875L12.625 3.84473L20.3955 2.2832L20.7227 2.82227ZM15.1152 5.17969C15.3559 5.99812 15.4682 6.85078 15.4414 7.70801C15.4413 9.1856 14.9267 10.9225 14.2656 12.541C13.5962 14.18 12.7385 15.7891 11.9727 17.041L10.624 19.2451L8.84863 4.68848L4.07617 5.1377L6.82227 21.5137H13.1455C14.7095 19.4336 16.4023 16.9869 17.7246 14.5059C19.134 11.8612 20.0673 9.28126 20.0674 7.11523V7.10254L20.0684 7.08984C20.0957 6.12485 19.892 5.17005 19.4795 4.30371L15.1152 5.17969Z" fill="#EA4A35"/>
</svg>
