<svg width="24" height="25" viewBox="0 0 24 25" fill="none" xmlns="http://www.w3.org/2000/svg">
<g clip-path="url(#clip0_233_898)">
<path d="M10.5259 22.4668C10.5259 22.5736 10.5685 22.6763 10.644 22.752C10.7196 22.8275 10.8224 22.87 10.9292 22.8701H13.3013C13.4082 22.8701 13.5108 22.8275 13.5864 22.752C13.662 22.6763 13.7046 22.5737 13.7046 22.4668V20.1582H17.311C17.4216 20.158 17.529 20.125 17.6196 20.0645L17.7046 19.9951C17.7827 19.9169 17.8355 19.8178 17.8569 19.7109L17.8677 19.6016V17.5332C17.8675 17.2653 17.6762 17.0413 17.4233 16.9893L17.311 16.9775V15.1777C18.6114 15.1777 19.6673 16.2329 19.6675 17.5332V19.6016C19.6675 20.226 19.4193 20.8247 18.978 21.2666C18.5368 21.7085 17.9384 21.9571 17.314 21.958H15.5044V22.4668C15.5044 23.0511 15.2721 23.6112 14.8589 24.0244C14.4457 24.4376 13.8856 24.6699 13.3013 24.6699H10.9292C10.345 24.6698 9.78469 24.4375 9.37158 24.0244C8.95853 23.6112 8.72607 23.051 8.72607 22.4668V21.958H6.68604C6.06235 21.9571 5.46404 21.7094 5.02295 21.2686C4.5819 20.8275 4.33355 20.2292 4.33252 19.6055V17.7363C4.33287 17.2105 4.50882 16.6995 4.83252 16.2852L4.83447 16.2832L9.34814 10.5254H6.99268C6.36774 10.5253 5.76856 10.2769 5.32666 9.83496C4.88477 9.39302 4.63629 8.7939 4.63623 8.16895V6.10059C4.63631 4.80014 5.69221 3.74512 6.99268 3.74512V5.54492L6.88037 5.55566C6.62734 5.6076 6.4361 5.83253 6.43604 6.10059V8.16895C6.43609 8.31651 6.4948 8.45813 6.59912 8.5625C6.70346 8.66684 6.84513 8.72548 6.99268 8.72559H13.0464L6.25049 17.3936L6.19971 17.4707C6.15556 17.5521 6.13239 17.6438 6.13232 17.7373V19.6025C6.13258 19.7498 6.19129 19.8909 6.29541 19.9951C6.39955 20.0993 6.54072 20.1579 6.68799 20.1582H10.5259V22.4668ZM17.8677 6.10059C17.8676 5.83256 17.6763 5.60764 17.4233 5.55566L17.311 5.54492V3.74512C18.6115 3.74512 19.6674 4.80014 19.6675 6.10059V7.8877C19.6666 8.4107 19.4914 8.91911 19.1704 9.33203L19.1685 9.33594L14.603 15.1777H17.311V16.9775H10.9116L17.7495 8.22754C17.8256 8.12964 17.8675 8.00876 17.8677 7.88477V6.10059ZM13.7026 3.23633C13.7026 3.0421 13.5637 2.87863 13.3804 2.84082L13.2993 2.83301V1.0332C14.5153 1.03341 15.5024 2.02027 15.5024 3.23633V3.74512H17.311V5.54492H13.7026V3.23633ZM8.72412 3.23633C8.72412 2.02014 9.71105 1.0332 10.9272 1.0332V2.83301L10.8462 2.84082C10.6626 2.87841 10.5239 3.0419 10.5239 3.23633V5.54492H6.99268V3.74512H8.72412V3.23633ZM13.2993 1.0332V2.83301H10.9272V1.0332H13.2993Z" fill="#EA4A35"/>
</g>
<defs>
<clipPath id="clip0_233_898">
<rect width="24" height="24" fill="white" transform="translate(0 0.851562)"/>
</clipPath>
</defs>
</svg>
